M48
; DRILL file {KiCad (5.1.10)-1} date 07/19/21 17:08:04
; FORMAT={-:-/ absolute / inch / decimal}
; #@! TF.CreationDate,2021-07-19T17:08:04-04:00
; #@! TF.GenerationSoftware,Kicad,Pcbnew,(5.1.10)-1
FMAT,2
INCH
T1C0.0157
T2C0.0350
T3C0.0394
T4C0.1260
%
G90
G05
T1
X6.2835Y-3.993
X6.866Y-3.776
X7.408Y-3.604
X7.408Y-3.644
T2
X4.922Y-5.006
X5.7094Y-5.006
T3
X4.72Y-3.13
X4.72Y-3.23
X4.72Y-3.445
X4.72Y-3.545
X4.72Y-3.645
X4.72Y-3.88
X4.72Y-3.98
X4.72Y-4.08
X5.02Y-4.215
X5.02Y-4.315
X5.495Y-4.215
X5.495Y-4.315
X5.815Y-3.69
X5.815Y-3.79
X6.0Y-5.006
X6.0Y-5.106
X6.47Y-3.139
X6.47Y-3.239
X6.47Y-3.469
X6.47Y-3.569
X6.47Y-3.669
X6.47Y-3.899
X6.47Y-3.999
X6.47Y-4.099
X6.512Y-5.055
X6.512Y-5.155
X6.7216Y-5.053
X6.7216Y-5.1751
X6.775Y-4.179
X6.775Y-4.279
X7.475Y-4.119
X7.475Y-4.219
X7.475Y-4.319
X7.5404Y-5.053
X7.5404Y-5.1751
T4
X4.3701Y-2.7953
X4.3701Y-5.5512
X7.874Y-2.7953
X7.874Y-5.5512
T0
M30
