%TF.GenerationSoftware,KiCad,Pcbnew,(5.1.10)-1*%
%TF.CreationDate,2021-07-19T17:08:21-04:00*%
%TF.ProjectId,gps-testing-board,6770732d-7465-4737-9469-6e672d626f61,rev?*%
%TF.SameCoordinates,Original*%
%TF.FileFunction,Legend,Top*%
%TF.FilePolarity,Positive*%
%FSLAX46Y46*%
G04 Gerber Fmt 4.6, Leading zero omitted, Abs format (unit mm)*
G04 Created by KiCad (PCBNEW (5.1.10)-1) date 2021-07-19 17:08:21*
%MOMM*%
%LPD*%
G01*
G04 APERTURE LIST*
%ADD10C,0.300000*%
%TA.AperFunction,Profile*%
%ADD11C,0.050000*%
%TD*%
%ADD12C,0.120000*%
%ADD13C,0.254000*%
%ADD14C,0.100000*%
%ADD15C,0.200000*%
%ADD16C,0.150000*%
G04 APERTURE END LIST*
D10*
X122222085Y-68744400D02*
X122079228Y-68672971D01*
X121864942Y-68672971D01*
X121650657Y-68744400D01*
X121507800Y-68887257D01*
X121436371Y-69030114D01*
X121364942Y-69315828D01*
X121364942Y-69530114D01*
X121436371Y-69815828D01*
X121507800Y-69958685D01*
X121650657Y-70101542D01*
X121864942Y-70172971D01*
X122007800Y-70172971D01*
X122222085Y-70101542D01*
X122293514Y-70030114D01*
X122293514Y-69530114D01*
X122007800Y-69530114D01*
X122936371Y-70172971D02*
X122936371Y-68672971D01*
X123507800Y-68672971D01*
X123650657Y-68744400D01*
X123722085Y-68815828D01*
X123793514Y-68958685D01*
X123793514Y-69172971D01*
X123722085Y-69315828D01*
X123650657Y-69387257D01*
X123507800Y-69458685D01*
X122936371Y-69458685D01*
X124364942Y-70101542D02*
X124579228Y-70172971D01*
X124936371Y-70172971D01*
X125079228Y-70101542D01*
X125150657Y-70030114D01*
X125222085Y-69887257D01*
X125222085Y-69744400D01*
X125150657Y-69601542D01*
X125079228Y-69530114D01*
X124936371Y-69458685D01*
X124650657Y-69387257D01*
X124507800Y-69315828D01*
X124436371Y-69244400D01*
X124364942Y-69101542D01*
X124364942Y-68958685D01*
X124436371Y-68815828D01*
X124507800Y-68744400D01*
X124650657Y-68672971D01*
X125007800Y-68672971D01*
X125222085Y-68744400D01*
X126793514Y-68672971D02*
X127650657Y-68672971D01*
X127222085Y-70172971D02*
X127222085Y-68672971D01*
X128722085Y-70101542D02*
X128579228Y-70172971D01*
X128293514Y-70172971D01*
X128150657Y-70101542D01*
X128079228Y-69958685D01*
X128079228Y-69387257D01*
X128150657Y-69244400D01*
X128293514Y-69172971D01*
X128579228Y-69172971D01*
X128722085Y-69244400D01*
X128793514Y-69387257D01*
X128793514Y-69530114D01*
X128079228Y-69672971D01*
X129364942Y-70101542D02*
X129507800Y-70172971D01*
X129793514Y-70172971D01*
X129936371Y-70101542D01*
X130007800Y-69958685D01*
X130007800Y-69887257D01*
X129936371Y-69744400D01*
X129793514Y-69672971D01*
X129579228Y-69672971D01*
X129436371Y-69601542D01*
X129364942Y-69458685D01*
X129364942Y-69387257D01*
X129436371Y-69244400D01*
X129579228Y-69172971D01*
X129793514Y-69172971D01*
X129936371Y-69244400D01*
X130436371Y-69172971D02*
X131007800Y-69172971D01*
X130650657Y-68672971D02*
X130650657Y-69958685D01*
X130722085Y-70101542D01*
X130864942Y-70172971D01*
X131007800Y-70172971D01*
X131507800Y-70172971D02*
X131507800Y-69172971D01*
X131507800Y-68672971D02*
X131436371Y-68744400D01*
X131507800Y-68815828D01*
X131579228Y-68744400D01*
X131507800Y-68672971D01*
X131507800Y-68815828D01*
X132222085Y-69172971D02*
X132222085Y-70172971D01*
X132222085Y-69315828D02*
X132293514Y-69244400D01*
X132436371Y-69172971D01*
X132650657Y-69172971D01*
X132793514Y-69244400D01*
X132864942Y-69387257D01*
X132864942Y-70172971D01*
X134222085Y-69172971D02*
X134222085Y-70387257D01*
X134150657Y-70530114D01*
X134079228Y-70601542D01*
X133936371Y-70672971D01*
X133722085Y-70672971D01*
X133579228Y-70601542D01*
X134222085Y-70101542D02*
X134079228Y-70172971D01*
X133793514Y-70172971D01*
X133650657Y-70101542D01*
X133579228Y-70030114D01*
X133507800Y-69887257D01*
X133507800Y-69458685D01*
X133579228Y-69315828D01*
X133650657Y-69244400D01*
X133793514Y-69172971D01*
X134079228Y-69172971D01*
X134222085Y-69244400D01*
X136579228Y-69387257D02*
X136793514Y-69458685D01*
X136864942Y-69530114D01*
X136936371Y-69672971D01*
X136936371Y-69887257D01*
X136864942Y-70030114D01*
X136793514Y-70101542D01*
X136650657Y-70172971D01*
X136079228Y-70172971D01*
X136079228Y-68672971D01*
X136579228Y-68672971D01*
X136722085Y-68744400D01*
X136793514Y-68815828D01*
X136864942Y-68958685D01*
X136864942Y-69101542D01*
X136793514Y-69244400D01*
X136722085Y-69315828D01*
X136579228Y-69387257D01*
X136079228Y-69387257D01*
X137793514Y-70172971D02*
X137650657Y-70101542D01*
X137579228Y-70030114D01*
X137507800Y-69887257D01*
X137507800Y-69458685D01*
X137579228Y-69315828D01*
X137650657Y-69244400D01*
X137793514Y-69172971D01*
X138007800Y-69172971D01*
X138150657Y-69244400D01*
X138222085Y-69315828D01*
X138293514Y-69458685D01*
X138293514Y-69887257D01*
X138222085Y-70030114D01*
X138150657Y-70101542D01*
X138007800Y-70172971D01*
X137793514Y-70172971D01*
X139579228Y-70172971D02*
X139579228Y-69387257D01*
X139507800Y-69244400D01*
X139364942Y-69172971D01*
X139079228Y-69172971D01*
X138936371Y-69244400D01*
X139579228Y-70101542D02*
X139436371Y-70172971D01*
X139079228Y-70172971D01*
X138936371Y-70101542D01*
X138864942Y-69958685D01*
X138864942Y-69815828D01*
X138936371Y-69672971D01*
X139079228Y-69601542D01*
X139436371Y-69601542D01*
X139579228Y-69530114D01*
X140293514Y-70172971D02*
X140293514Y-69172971D01*
X140293514Y-69458685D02*
X140364942Y-69315828D01*
X140436371Y-69244400D01*
X140579228Y-69172971D01*
X140722085Y-69172971D01*
X141864942Y-70172971D02*
X141864942Y-68672971D01*
X141864942Y-70101542D02*
X141722085Y-70172971D01*
X141436371Y-70172971D01*
X141293514Y-70101542D01*
X141222085Y-70030114D01*
X141150657Y-69887257D01*
X141150657Y-69458685D01*
X141222085Y-69315828D01*
X141293514Y-69244400D01*
X141436371Y-69172971D01*
X141722085Y-69172971D01*
X141864942Y-69244400D01*
X142507800Y-70101542D02*
X142650657Y-70172971D01*
X142936371Y-70172971D01*
X143079228Y-70101542D01*
X143150657Y-69958685D01*
X143150657Y-69887257D01*
X143079228Y-69744400D01*
X142936371Y-69672971D01*
X142722085Y-69672971D01*
X142579228Y-69601542D01*
X142507800Y-69458685D01*
X142507800Y-69387257D01*
X142579228Y-69244400D01*
X142722085Y-69172971D01*
X142936371Y-69172971D01*
X143079228Y-69244400D01*
D11*
X111000000Y-150000000D02*
G75*
G02*
X102000000Y-141000000I0J9000000D01*
G01*
X209000000Y-141000000D02*
G75*
G02*
X200000000Y-150000000I-9000000J0D01*
G01*
X200000000Y-62000000D02*
G75*
G02*
X209000000Y-71000000I0J-9000000D01*
G01*
X111000000Y-150000000D02*
X200000000Y-150000000D01*
X209000000Y-71000000D02*
X209000000Y-141000000D01*
X102000000Y-71000000D02*
G75*
G02*
X111000000Y-62000000I9000000J0D01*
G01*
X111000000Y-62000000D02*
X200000000Y-62000000D01*
X102000000Y-71000000D02*
X102000000Y-141000000D01*
D10*
X161988571Y-131018742D02*
X163131428Y-131018742D01*
X155003571Y-129799542D02*
X156146428Y-129799542D01*
X162064771Y-128504142D02*
X163207628Y-128504142D01*
X162636200Y-129075571D02*
X162636200Y-127932714D01*
X155054371Y-127259542D02*
X156197228Y-127259542D01*
X155625800Y-127830971D02*
X155625800Y-126688114D01*
X151343657Y-123844857D02*
X151557942Y-123916285D01*
X151629371Y-123987714D01*
X151700800Y-124130571D01*
X151700800Y-124344857D01*
X151629371Y-124487714D01*
X151557942Y-124559142D01*
X151415085Y-124630571D01*
X150843657Y-124630571D01*
X150843657Y-123130571D01*
X151343657Y-123130571D01*
X151486514Y-123202000D01*
X151557942Y-123273428D01*
X151629371Y-123416285D01*
X151629371Y-123559142D01*
X151557942Y-123702000D01*
X151486514Y-123773428D01*
X151343657Y-123844857D01*
X150843657Y-123844857D01*
X152272228Y-124202000D02*
X152986514Y-124202000D01*
X152129371Y-124630571D02*
X152629371Y-123130571D01*
X153129371Y-124630571D01*
X153415085Y-123130571D02*
X154272228Y-123130571D01*
X153843657Y-124630571D02*
X153843657Y-123130571D01*
X151343657Y-123971857D02*
X151557942Y-124043285D01*
X151629371Y-124114714D01*
X151700800Y-124257571D01*
X151700800Y-124471857D01*
X151629371Y-124614714D01*
X151557942Y-124686142D01*
X151415085Y-124757571D01*
X150843657Y-124757571D01*
X150843657Y-123257571D01*
X151343657Y-123257571D01*
X151486514Y-123329000D01*
X151557942Y-123400428D01*
X151629371Y-123543285D01*
X151629371Y-123686142D01*
X151557942Y-123829000D01*
X151486514Y-123900428D01*
X151343657Y-123971857D01*
X150843657Y-123971857D01*
X152272228Y-124329000D02*
X152986514Y-124329000D01*
X152129371Y-124757571D02*
X152629371Y-123257571D01*
X153129371Y-124757571D01*
X153415085Y-123257571D02*
X154272228Y-123257571D01*
X153843657Y-124757571D02*
X153843657Y-123257571D01*
X164272257Y-125216457D02*
X164486542Y-125287885D01*
X164557971Y-125359314D01*
X164629400Y-125502171D01*
X164629400Y-125716457D01*
X164557971Y-125859314D01*
X164486542Y-125930742D01*
X164343685Y-126002171D01*
X163772257Y-126002171D01*
X163772257Y-124502171D01*
X164272257Y-124502171D01*
X164415114Y-124573600D01*
X164486542Y-124645028D01*
X164557971Y-124787885D01*
X164557971Y-124930742D01*
X164486542Y-125073600D01*
X164415114Y-125145028D01*
X164272257Y-125216457D01*
X163772257Y-125216457D01*
X165200828Y-125573600D02*
X165915114Y-125573600D01*
X165057971Y-126002171D02*
X165557971Y-124502171D01*
X166057971Y-126002171D01*
X166343685Y-124502171D02*
X167200828Y-124502171D01*
X166772257Y-126002171D02*
X166772257Y-124502171D01*
X121590971Y-67709171D02*
X121590971Y-66209171D01*
X121590971Y-66923457D02*
X122448114Y-66923457D01*
X122448114Y-67709171D02*
X122448114Y-66209171D01*
X123805257Y-67709171D02*
X123805257Y-66923457D01*
X123733828Y-66780600D01*
X123590971Y-66709171D01*
X123305257Y-66709171D01*
X123162400Y-66780600D01*
X123805257Y-67637742D02*
X123662400Y-67709171D01*
X123305257Y-67709171D01*
X123162400Y-67637742D01*
X123090971Y-67494885D01*
X123090971Y-67352028D01*
X123162400Y-67209171D01*
X123305257Y-67137742D01*
X123662400Y-67137742D01*
X123805257Y-67066314D01*
X125162400Y-67637742D02*
X125019542Y-67709171D01*
X124733828Y-67709171D01*
X124590971Y-67637742D01*
X124519542Y-67566314D01*
X124448114Y-67423457D01*
X124448114Y-66994885D01*
X124519542Y-66852028D01*
X124590971Y-66780600D01*
X124733828Y-66709171D01*
X125019542Y-66709171D01*
X125162400Y-66780600D01*
X125805257Y-67709171D02*
X125805257Y-66209171D01*
X125948114Y-67137742D02*
X126376685Y-67709171D01*
X126376685Y-66709171D02*
X125805257Y-67280600D01*
X127662400Y-67709171D02*
X127662400Y-66923457D01*
X127590971Y-66780600D01*
X127448114Y-66709171D01*
X127162400Y-66709171D01*
X127019542Y-66780600D01*
X127662400Y-67637742D02*
X127519542Y-67709171D01*
X127162400Y-67709171D01*
X127019542Y-67637742D01*
X126948114Y-67494885D01*
X126948114Y-67352028D01*
X127019542Y-67209171D01*
X127162400Y-67137742D01*
X127519542Y-67137742D01*
X127662400Y-67066314D01*
X129019542Y-67709171D02*
X129019542Y-66209171D01*
X129019542Y-67637742D02*
X128876685Y-67709171D01*
X128590971Y-67709171D01*
X128448114Y-67637742D01*
X128376685Y-67566314D01*
X128305257Y-67423457D01*
X128305257Y-66994885D01*
X128376685Y-66852028D01*
X128448114Y-66780600D01*
X128590971Y-66709171D01*
X128876685Y-66709171D01*
X129019542Y-66780600D01*
X130376685Y-67709171D02*
X130376685Y-66923457D01*
X130305257Y-66780600D01*
X130162400Y-66709171D01*
X129876685Y-66709171D01*
X129733828Y-66780600D01*
X130376685Y-67637742D02*
X130233828Y-67709171D01*
X129876685Y-67709171D01*
X129733828Y-67637742D01*
X129662400Y-67494885D01*
X129662400Y-67352028D01*
X129733828Y-67209171D01*
X129876685Y-67137742D01*
X130233828Y-67137742D01*
X130376685Y-67066314D01*
X130948114Y-66709171D02*
X131305257Y-67709171D01*
X131662400Y-66709171D02*
X131305257Y-67709171D01*
X131162400Y-68066314D01*
X131090971Y-68137742D01*
X130948114Y-68209171D01*
X133376685Y-67709171D02*
X133376685Y-66209171D01*
X133733828Y-66209171D01*
X133948114Y-66280600D01*
X134090971Y-66423457D01*
X134162400Y-66566314D01*
X134233828Y-66852028D01*
X134233828Y-67066314D01*
X134162400Y-67352028D01*
X134090971Y-67494885D01*
X133948114Y-67637742D01*
X133733828Y-67709171D01*
X133376685Y-67709171D01*
X134876685Y-67709171D02*
X134876685Y-66709171D01*
X134876685Y-66994885D02*
X134948114Y-66852028D01*
X135019542Y-66780600D01*
X135162400Y-66709171D01*
X135305257Y-66709171D01*
X136376685Y-67637742D02*
X136233828Y-67709171D01*
X135948114Y-67709171D01*
X135805257Y-67637742D01*
X135733828Y-67494885D01*
X135733828Y-66923457D01*
X135805257Y-66780600D01*
X135948114Y-66709171D01*
X136233828Y-66709171D01*
X136376685Y-66780600D01*
X136448114Y-66923457D01*
X136448114Y-67066314D01*
X135733828Y-67209171D01*
X137733828Y-67709171D02*
X137733828Y-66923457D01*
X137662400Y-66780600D01*
X137519542Y-66709171D01*
X137233828Y-66709171D01*
X137090971Y-66780600D01*
X137733828Y-67637742D02*
X137590971Y-67709171D01*
X137233828Y-67709171D01*
X137090971Y-67637742D01*
X137019542Y-67494885D01*
X137019542Y-67352028D01*
X137090971Y-67209171D01*
X137233828Y-67137742D01*
X137590971Y-67137742D01*
X137733828Y-67066314D01*
X138448114Y-67709171D02*
X138448114Y-66709171D01*
X138448114Y-66852028D02*
X138519542Y-66780600D01*
X138662400Y-66709171D01*
X138876685Y-66709171D01*
X139019542Y-66780600D01*
X139090971Y-66923457D01*
X139090971Y-67709171D01*
X139090971Y-66923457D02*
X139162400Y-66780600D01*
X139305257Y-66709171D01*
X139519542Y-66709171D01*
X139662400Y-66780600D01*
X139733828Y-66923457D01*
X139733828Y-67709171D01*
X141376685Y-66209171D02*
X142233828Y-66209171D01*
X141805257Y-67709171D02*
X141805257Y-66209171D01*
X143305257Y-67637742D02*
X143162400Y-67709171D01*
X142876685Y-67709171D01*
X142733828Y-67637742D01*
X142662400Y-67494885D01*
X142662400Y-66923457D01*
X142733828Y-66780600D01*
X142876685Y-66709171D01*
X143162400Y-66709171D01*
X143305257Y-66780600D01*
X143376685Y-66923457D01*
X143376685Y-67066314D01*
X142662400Y-67209171D01*
X144662400Y-67709171D02*
X144662400Y-66923457D01*
X144590971Y-66780600D01*
X144448114Y-66709171D01*
X144162400Y-66709171D01*
X144019542Y-66780600D01*
X144662400Y-67637742D02*
X144519542Y-67709171D01*
X144162400Y-67709171D01*
X144019542Y-67637742D01*
X143948114Y-67494885D01*
X143948114Y-67352028D01*
X144019542Y-67209171D01*
X144162400Y-67137742D01*
X144519542Y-67137742D01*
X144662400Y-67066314D01*
X145376685Y-67709171D02*
X145376685Y-66709171D01*
X145376685Y-66852028D02*
X145448114Y-66780600D01*
X145590971Y-66709171D01*
X145805257Y-66709171D01*
X145948114Y-66780600D01*
X146019542Y-66923457D01*
X146019542Y-67709171D01*
X146019542Y-66923457D02*
X146090971Y-66780600D01*
X146233828Y-66709171D01*
X146448114Y-66709171D01*
X146590971Y-66780600D01*
X146662400Y-66923457D01*
X146662400Y-67709171D01*
X149376685Y-67566314D02*
X149305257Y-67637742D01*
X149090971Y-67709171D01*
X148948114Y-67709171D01*
X148733828Y-67637742D01*
X148590971Y-67494885D01*
X148519542Y-67352028D01*
X148448114Y-67066314D01*
X148448114Y-66852028D01*
X148519542Y-66566314D01*
X148590971Y-66423457D01*
X148733828Y-66280600D01*
X148948114Y-66209171D01*
X149090971Y-66209171D01*
X149305257Y-66280600D01*
X149376685Y-66352028D01*
X150019542Y-67709171D02*
X150019542Y-66209171D01*
X150662400Y-67709171D02*
X150662400Y-66923457D01*
X150590971Y-66780600D01*
X150448114Y-66709171D01*
X150233828Y-66709171D01*
X150090971Y-66780600D01*
X150019542Y-66852028D01*
X152019542Y-67709171D02*
X152019542Y-66923457D01*
X151948114Y-66780600D01*
X151805257Y-66709171D01*
X151519542Y-66709171D01*
X151376685Y-66780600D01*
X152019542Y-67637742D02*
X151876685Y-67709171D01*
X151519542Y-67709171D01*
X151376685Y-67637742D01*
X151305257Y-67494885D01*
X151305257Y-67352028D01*
X151376685Y-67209171D01*
X151519542Y-67137742D01*
X151876685Y-67137742D01*
X152019542Y-67066314D01*
X152948114Y-67709171D02*
X152805257Y-67637742D01*
X152733828Y-67494885D01*
X152733828Y-66209171D01*
X153733828Y-67709171D02*
X153590971Y-67637742D01*
X153519542Y-67494885D01*
X153519542Y-66209171D01*
X154876685Y-67637742D02*
X154733828Y-67709171D01*
X154448114Y-67709171D01*
X154305257Y-67637742D01*
X154233828Y-67494885D01*
X154233828Y-66923457D01*
X154305257Y-66780600D01*
X154448114Y-66709171D01*
X154733828Y-66709171D01*
X154876685Y-66780600D01*
X154948114Y-66923457D01*
X154948114Y-67066314D01*
X154233828Y-67209171D01*
X155590971Y-66709171D02*
X155590971Y-67709171D01*
X155590971Y-66852028D02*
X155662400Y-66780600D01*
X155805257Y-66709171D01*
X156019542Y-66709171D01*
X156162400Y-66780600D01*
X156233828Y-66923457D01*
X156233828Y-67709171D01*
X157590971Y-66709171D02*
X157590971Y-67923457D01*
X157519542Y-68066314D01*
X157448114Y-68137742D01*
X157305257Y-68209171D01*
X157090971Y-68209171D01*
X156948114Y-68137742D01*
X157590971Y-67637742D02*
X157448114Y-67709171D01*
X157162400Y-67709171D01*
X157019542Y-67637742D01*
X156948114Y-67566314D01*
X156876685Y-67423457D01*
X156876685Y-66994885D01*
X156948114Y-66852028D01*
X157019542Y-66780600D01*
X157162400Y-66709171D01*
X157448114Y-66709171D01*
X157590971Y-66780600D01*
X158876685Y-67637742D02*
X158733828Y-67709171D01*
X158448114Y-67709171D01*
X158305257Y-67637742D01*
X158233828Y-67494885D01*
X158233828Y-66923457D01*
X158305257Y-66780600D01*
X158448114Y-66709171D01*
X158733828Y-66709171D01*
X158876685Y-66780600D01*
X158948114Y-66923457D01*
X158948114Y-67066314D01*
X158233828Y-67209171D01*
X160662400Y-66352028D02*
X160733828Y-66280600D01*
X160876685Y-66209171D01*
X161233828Y-66209171D01*
X161376685Y-66280600D01*
X161448114Y-66352028D01*
X161519542Y-66494885D01*
X161519542Y-66637742D01*
X161448114Y-66852028D01*
X160590971Y-67709171D01*
X161519542Y-67709171D01*
X162448114Y-66209171D02*
X162590971Y-66209171D01*
X162733828Y-66280600D01*
X162805257Y-66352028D01*
X162876685Y-66494885D01*
X162948114Y-66780600D01*
X162948114Y-67137742D01*
X162876685Y-67423457D01*
X162805257Y-67566314D01*
X162733828Y-67637742D01*
X162590971Y-67709171D01*
X162448114Y-67709171D01*
X162305257Y-67637742D01*
X162233828Y-67566314D01*
X162162400Y-67423457D01*
X162090971Y-67137742D01*
X162090971Y-66780600D01*
X162162400Y-66494885D01*
X162233828Y-66352028D01*
X162305257Y-66280600D01*
X162448114Y-66209171D01*
X163519542Y-66352028D02*
X163590971Y-66280600D01*
X163733828Y-66209171D01*
X164090971Y-66209171D01*
X164233828Y-66280600D01*
X164305257Y-66352028D01*
X164376685Y-66494885D01*
X164376685Y-66637742D01*
X164305257Y-66852028D01*
X163448114Y-67709171D01*
X164376685Y-67709171D01*
X165805257Y-67709171D02*
X164948114Y-67709171D01*
X165376685Y-67709171D02*
X165376685Y-66209171D01*
X165233828Y-66423457D01*
X165090971Y-66566314D01*
X164948114Y-66637742D01*
X127353228Y-72789171D02*
X126496085Y-72789171D01*
X126924657Y-72789171D02*
X126924657Y-71289171D01*
X126781800Y-71503457D01*
X126638942Y-71646314D01*
X126496085Y-71717742D01*
X128067514Y-72789171D02*
X128353228Y-72789171D01*
X128496085Y-72717742D01*
X128567514Y-72646314D01*
X128710371Y-72432028D01*
X128781800Y-72146314D01*
X128781800Y-71574885D01*
X128710371Y-71432028D01*
X128638942Y-71360600D01*
X128496085Y-71289171D01*
X128210371Y-71289171D01*
X128067514Y-71360600D01*
X127996085Y-71432028D01*
X127924657Y-71574885D01*
X127924657Y-71932028D01*
X127996085Y-72074885D01*
X128067514Y-72146314D01*
X128210371Y-72217742D01*
X128496085Y-72217742D01*
X128638942Y-72146314D01*
X128710371Y-72074885D01*
X128781800Y-71932028D01*
X129424657Y-72217742D02*
X130567514Y-72217742D01*
X131567514Y-71289171D02*
X131710371Y-71289171D01*
X131853228Y-71360600D01*
X131924657Y-71432028D01*
X131996085Y-71574885D01*
X132067514Y-71860600D01*
X132067514Y-72217742D01*
X131996085Y-72503457D01*
X131924657Y-72646314D01*
X131853228Y-72717742D01*
X131710371Y-72789171D01*
X131567514Y-72789171D01*
X131424657Y-72717742D01*
X131353228Y-72646314D01*
X131281800Y-72503457D01*
X131210371Y-72217742D01*
X131210371Y-71860600D01*
X131281800Y-71574885D01*
X131353228Y-71432028D01*
X131424657Y-71360600D01*
X131567514Y-71289171D01*
X132567514Y-71289171D02*
X133567514Y-71289171D01*
X132924657Y-72789171D01*
X134138942Y-72217742D02*
X135281800Y-72217742D01*
X135924657Y-71432028D02*
X135996085Y-71360600D01*
X136138942Y-71289171D01*
X136496085Y-71289171D01*
X136638942Y-71360600D01*
X136710371Y-71432028D01*
X136781800Y-71574885D01*
X136781800Y-71717742D01*
X136710371Y-71932028D01*
X135853228Y-72789171D01*
X136781800Y-72789171D01*
X137710371Y-71289171D02*
X137853228Y-71289171D01*
X137996085Y-71360600D01*
X138067514Y-71432028D01*
X138138942Y-71574885D01*
X138210371Y-71860600D01*
X138210371Y-72217742D01*
X138138942Y-72503457D01*
X138067514Y-72646314D01*
X137996085Y-72717742D01*
X137853228Y-72789171D01*
X137710371Y-72789171D01*
X137567514Y-72717742D01*
X137496085Y-72646314D01*
X137424657Y-72503457D01*
X137353228Y-72217742D01*
X137353228Y-71860600D01*
X137424657Y-71574885D01*
X137496085Y-71432028D01*
X137567514Y-71360600D01*
X137710371Y-71289171D01*
X138781800Y-71432028D02*
X138853228Y-71360600D01*
X138996085Y-71289171D01*
X139353228Y-71289171D01*
X139496085Y-71360600D01*
X139567514Y-71432028D01*
X139638942Y-71574885D01*
X139638942Y-71717742D01*
X139567514Y-71932028D01*
X138710371Y-72789171D01*
X139638942Y-72789171D01*
X141067514Y-72789171D02*
X140210371Y-72789171D01*
X140638942Y-72789171D02*
X140638942Y-71289171D01*
X140496085Y-71503457D01*
X140353228Y-71646314D01*
X140210371Y-71717742D01*
X122363800Y-72763771D02*
X121649514Y-72763771D01*
X121649514Y-71263771D01*
X122863800Y-72620914D02*
X122935228Y-72692342D01*
X122863800Y-72763771D01*
X122792371Y-72692342D01*
X122863800Y-72620914D01*
X122863800Y-72763771D01*
X123435228Y-71263771D02*
X123792371Y-72763771D01*
X124078085Y-71692342D01*
X124363800Y-72763771D01*
X124720942Y-71263771D01*
X174492342Y-76627800D02*
X175206628Y-76627800D01*
X174349485Y-77056371D02*
X174849485Y-75556371D01*
X175349485Y-77056371D01*
X175849485Y-77056371D02*
X175849485Y-75556371D01*
X176706628Y-77056371D01*
X176706628Y-75556371D01*
X177206628Y-75556371D02*
X178063771Y-75556371D01*
X177635200Y-77056371D02*
X177635200Y-75556371D01*
X178563771Y-76270657D02*
X179063771Y-76270657D01*
X179278057Y-77056371D02*
X178563771Y-77056371D01*
X178563771Y-75556371D01*
X179278057Y-75556371D01*
X179920914Y-77056371D02*
X179920914Y-75556371D01*
X180778057Y-77056371D01*
X180778057Y-75556371D01*
X181778057Y-75556371D02*
X182063771Y-75556371D01*
X182206628Y-75627800D01*
X182349485Y-75770657D01*
X182420914Y-76056371D01*
X182420914Y-76556371D01*
X182349485Y-76842085D01*
X182206628Y-76984942D01*
X182063771Y-77056371D01*
X181778057Y-77056371D01*
X181635200Y-76984942D01*
X181492342Y-76842085D01*
X181420914Y-76556371D01*
X181420914Y-76056371D01*
X181492342Y-75770657D01*
X181635200Y-75627800D01*
X181778057Y-75556371D01*
X182849485Y-75556371D02*
X183349485Y-77056371D01*
X183849485Y-75556371D01*
X184278057Y-76627800D02*
X184992342Y-76627800D01*
X184135200Y-77056371D02*
X184635200Y-75556371D01*
X185135200Y-77056371D01*
X185278057Y-77199228D02*
X186420914Y-77199228D01*
X186778057Y-77056371D02*
X186778057Y-75556371D01*
X187278057Y-76627800D01*
X187778057Y-75556371D01*
X187778057Y-77056371D01*
X188420914Y-75699228D02*
X188492342Y-75627800D01*
X188635200Y-75556371D01*
X188992342Y-75556371D01*
X189135200Y-75627800D01*
X189206628Y-75699228D01*
X189278057Y-75842085D01*
X189278057Y-75984942D01*
X189206628Y-76199228D01*
X188349485Y-77056371D01*
X189278057Y-77056371D01*
X190206628Y-75556371D02*
X190349485Y-75556371D01*
X190492342Y-75627800D01*
X190563771Y-75699228D01*
X190635200Y-75842085D01*
X190706628Y-76127800D01*
X190706628Y-76484942D01*
X190635200Y-76770657D01*
X190563771Y-76913514D01*
X190492342Y-76984942D01*
X190349485Y-77056371D01*
X190206628Y-77056371D01*
X190063771Y-76984942D01*
X189992342Y-76913514D01*
X189920914Y-76770657D01*
X189849485Y-76484942D01*
X189849485Y-76127800D01*
X189920914Y-75842085D01*
X189992342Y-75699228D01*
X190063771Y-75627800D01*
X190206628Y-75556371D01*
X191635200Y-75556371D02*
X191778057Y-75556371D01*
X191920914Y-75627800D01*
X191992342Y-75699228D01*
X192063771Y-75842085D01*
X192135200Y-76127800D01*
X192135200Y-76484942D01*
X192063771Y-76770657D01*
X191992342Y-76913514D01*
X191920914Y-76984942D01*
X191778057Y-77056371D01*
X191635200Y-77056371D01*
X191492342Y-76984942D01*
X191420914Y-76913514D01*
X191349485Y-76770657D01*
X191278057Y-76484942D01*
X191278057Y-76127800D01*
X191349485Y-75842085D01*
X191420914Y-75699228D01*
X191492342Y-75627800D01*
X191635200Y-75556371D01*
X193492342Y-75556371D02*
X192778057Y-75556371D01*
X192706628Y-76270657D01*
X192778057Y-76199228D01*
X192920914Y-76127800D01*
X193278057Y-76127800D01*
X193420914Y-76199228D01*
X193492342Y-76270657D01*
X193563771Y-76413514D01*
X193563771Y-76770657D01*
X193492342Y-76913514D01*
X193420914Y-76984942D01*
X193278057Y-77056371D01*
X192920914Y-77056371D01*
X192778057Y-76984942D01*
X192706628Y-76913514D01*
X194492342Y-75556371D02*
X194635200Y-75556371D01*
X194778057Y-75627800D01*
X194849485Y-75699228D01*
X194920914Y-75842085D01*
X194992342Y-76127800D01*
X194992342Y-76484942D01*
X194920914Y-76770657D01*
X194849485Y-76913514D01*
X194778057Y-76984942D01*
X194635200Y-77056371D01*
X194492342Y-77056371D01*
X194349485Y-76984942D01*
X194278057Y-76913514D01*
X194206628Y-76770657D01*
X194135200Y-76484942D01*
X194135200Y-76127800D01*
X194206628Y-75842085D01*
X194278057Y-75699228D01*
X194349485Y-75627800D01*
X194492342Y-75556371D01*
X195635200Y-76484942D02*
X196778057Y-76484942D01*
X198278057Y-77056371D02*
X197420914Y-77056371D01*
X197849485Y-77056371D02*
X197849485Y-75556371D01*
X197706628Y-75770657D01*
X197563771Y-75913514D01*
X197420914Y-75984942D01*
D12*
X199085200Y-75031600D02*
X199085200Y-75539600D01*
X156667200Y-75031600D02*
X199085200Y-75031600D01*
X199085200Y-114401600D02*
X199085200Y-75285600D01*
X156667200Y-114401600D02*
X199085200Y-114401600D01*
X156667200Y-75031600D02*
X156667200Y-114401600D01*
X156083000Y-75057000D02*
X112395000Y-75057000D01*
X156083000Y-75311000D02*
X156083000Y-75057000D01*
X156083000Y-111887000D02*
X156083000Y-75311000D01*
X112395000Y-111887000D02*
X156083000Y-111887000D01*
X112395000Y-75184000D02*
X112395000Y-111887000D01*
D10*
X126527857Y-104032857D02*
X126742142Y-104104285D01*
X126813571Y-104175714D01*
X126885000Y-104318571D01*
X126885000Y-104532857D01*
X126813571Y-104675714D01*
X126742142Y-104747142D01*
X126599285Y-104818571D01*
X126027857Y-104818571D01*
X126027857Y-103318571D01*
X126527857Y-103318571D01*
X126670714Y-103390000D01*
X126742142Y-103461428D01*
X126813571Y-103604285D01*
X126813571Y-103747142D01*
X126742142Y-103890000D01*
X126670714Y-103961428D01*
X126527857Y-104032857D01*
X126027857Y-104032857D01*
X127456428Y-104390000D02*
X128170714Y-104390000D01*
X127313571Y-104818571D02*
X127813571Y-103318571D01*
X128313571Y-104818571D01*
X128599285Y-103318571D02*
X129456428Y-103318571D01*
X129027857Y-104818571D02*
X129027857Y-103318571D01*
X192695142Y-104515457D02*
X192195142Y-104515457D01*
X192195142Y-105301171D02*
X192195142Y-103801171D01*
X192909428Y-103801171D01*
X193480857Y-105301171D02*
X193480857Y-103801171D01*
X194052285Y-103801171D02*
X195052285Y-105301171D01*
X195052285Y-103801171D02*
X194052285Y-105301171D01*
X192980857Y-108952600D02*
X192838000Y-108881171D01*
X192623714Y-108881171D01*
X192409428Y-108952600D01*
X192266571Y-109095457D01*
X192195142Y-109238314D01*
X192123714Y-109524028D01*
X192123714Y-109738314D01*
X192195142Y-110024028D01*
X192266571Y-110166885D01*
X192409428Y-110309742D01*
X192623714Y-110381171D01*
X192766571Y-110381171D01*
X192980857Y-110309742D01*
X193052285Y-110238314D01*
X193052285Y-109738314D01*
X192766571Y-109738314D01*
X193695142Y-110381171D02*
X193695142Y-108881171D01*
X194552285Y-110381171D01*
X194552285Y-108881171D01*
X195266571Y-110381171D02*
X195266571Y-108881171D01*
X195623714Y-108881171D01*
X195838000Y-108952600D01*
X195980857Y-109095457D01*
X196052285Y-109238314D01*
X196123714Y-109524028D01*
X196123714Y-109738314D01*
X196052285Y-110024028D01*
X195980857Y-110166885D01*
X195838000Y-110309742D01*
X195623714Y-110381171D01*
X195266571Y-110381171D01*
X192123714Y-107769742D02*
X192338000Y-107841171D01*
X192695142Y-107841171D01*
X192838000Y-107769742D01*
X192909428Y-107698314D01*
X192980857Y-107555457D01*
X192980857Y-107412600D01*
X192909428Y-107269742D01*
X192838000Y-107198314D01*
X192695142Y-107126885D01*
X192409428Y-107055457D01*
X192266571Y-106984028D01*
X192195142Y-106912600D01*
X192123714Y-106769742D01*
X192123714Y-106626885D01*
X192195142Y-106484028D01*
X192266571Y-106412600D01*
X192409428Y-106341171D01*
X192766571Y-106341171D01*
X192980857Y-106412600D01*
X193909428Y-107126885D02*
X193909428Y-107841171D01*
X193409428Y-106341171D02*
X193909428Y-107126885D01*
X194409428Y-106341171D01*
X194909428Y-107841171D02*
X194909428Y-106341171D01*
X195766571Y-107841171D01*
X195766571Y-106341171D01*
X197338000Y-107698314D02*
X197266571Y-107769742D01*
X197052285Y-107841171D01*
X196909428Y-107841171D01*
X196695142Y-107769742D01*
X196552285Y-107626885D01*
X196480857Y-107484028D01*
X196409428Y-107198314D01*
X196409428Y-106984028D01*
X196480857Y-106698314D01*
X196552285Y-106555457D01*
X196695142Y-106412600D01*
X196909428Y-106341171D01*
X197052285Y-106341171D01*
X197266571Y-106412600D01*
X197338000Y-106484028D01*
X188329285Y-102253171D02*
X188329285Y-100753171D01*
X189043571Y-102253171D02*
X189043571Y-100753171D01*
X189900714Y-102253171D01*
X189900714Y-100753171D01*
X190615000Y-102253171D02*
X190615000Y-100753171D01*
X190972142Y-100753171D01*
X191186428Y-100824600D01*
X191329285Y-100967457D01*
X191400714Y-101110314D01*
X191472142Y-101396028D01*
X191472142Y-101610314D01*
X191400714Y-101896028D01*
X191329285Y-102038885D01*
X191186428Y-102181742D01*
X190972142Y-102253171D01*
X190615000Y-102253171D01*
X168211571Y-108793742D02*
X169354428Y-108793742D01*
X168211571Y-106253742D02*
X169354428Y-106253742D01*
X168783000Y-106825171D02*
X168783000Y-105682314D01*
X170977857Y-103245457D02*
X171192142Y-103316885D01*
X171263571Y-103388314D01*
X171335000Y-103531171D01*
X171335000Y-103745457D01*
X171263571Y-103888314D01*
X171192142Y-103959742D01*
X171049285Y-104031171D01*
X170477857Y-104031171D01*
X170477857Y-102531171D01*
X170977857Y-102531171D01*
X171120714Y-102602600D01*
X171192142Y-102674028D01*
X171263571Y-102816885D01*
X171263571Y-102959742D01*
X171192142Y-103102600D01*
X171120714Y-103174028D01*
X170977857Y-103245457D01*
X170477857Y-103245457D01*
X171906428Y-103602600D02*
X172620714Y-103602600D01*
X171763571Y-104031171D02*
X172263571Y-102531171D01*
X172763571Y-104031171D01*
X173049285Y-102531171D02*
X173906428Y-102531171D01*
X173477857Y-104031171D02*
X173477857Y-102531171D01*
X158428428Y-103364600D02*
X158285571Y-103293171D01*
X158071285Y-103293171D01*
X157857000Y-103364600D01*
X157714142Y-103507457D01*
X157642714Y-103650314D01*
X157571285Y-103936028D01*
X157571285Y-104150314D01*
X157642714Y-104436028D01*
X157714142Y-104578885D01*
X157857000Y-104721742D01*
X158071285Y-104793171D01*
X158214142Y-104793171D01*
X158428428Y-104721742D01*
X158499857Y-104650314D01*
X158499857Y-104150314D01*
X158214142Y-104150314D01*
X159142714Y-104793171D02*
X159142714Y-103293171D01*
X159999857Y-104793171D01*
X159999857Y-103293171D01*
X160714142Y-104793171D02*
X160714142Y-103293171D01*
X161071285Y-103293171D01*
X161285571Y-103364600D01*
X161428428Y-103507457D01*
X161499857Y-103650314D01*
X161571285Y-103936028D01*
X161571285Y-104150314D01*
X161499857Y-104436028D01*
X161428428Y-104578885D01*
X161285571Y-104721742D01*
X161071285Y-104793171D01*
X160714142Y-104793171D01*
X157745857Y-102181742D02*
X157960142Y-102253171D01*
X158317285Y-102253171D01*
X158460142Y-102181742D01*
X158531571Y-102110314D01*
X158603000Y-101967457D01*
X158603000Y-101824600D01*
X158531571Y-101681742D01*
X158460142Y-101610314D01*
X158317285Y-101538885D01*
X158031571Y-101467457D01*
X157888714Y-101396028D01*
X157817285Y-101324600D01*
X157745857Y-101181742D01*
X157745857Y-101038885D01*
X157817285Y-100896028D01*
X157888714Y-100824600D01*
X158031571Y-100753171D01*
X158388714Y-100753171D01*
X158603000Y-100824600D01*
X160103000Y-102110314D02*
X160031571Y-102181742D01*
X159817285Y-102253171D01*
X159674428Y-102253171D01*
X159460142Y-102181742D01*
X159317285Y-102038885D01*
X159245857Y-101896028D01*
X159174428Y-101610314D01*
X159174428Y-101396028D01*
X159245857Y-101110314D01*
X159317285Y-100967457D01*
X159460142Y-100824600D01*
X159674428Y-100753171D01*
X159817285Y-100753171D01*
X160031571Y-100824600D01*
X160103000Y-100896028D01*
X161460142Y-102253171D02*
X160745857Y-102253171D01*
X160745857Y-100753171D01*
X157674428Y-99641742D02*
X157888714Y-99713171D01*
X158245857Y-99713171D01*
X158388714Y-99641742D01*
X158460142Y-99570314D01*
X158531571Y-99427457D01*
X158531571Y-99284600D01*
X158460142Y-99141742D01*
X158388714Y-99070314D01*
X158245857Y-98998885D01*
X157960142Y-98927457D01*
X157817285Y-98856028D01*
X157745857Y-98784600D01*
X157674428Y-98641742D01*
X157674428Y-98498885D01*
X157745857Y-98356028D01*
X157817285Y-98284600D01*
X157960142Y-98213171D01*
X158317285Y-98213171D01*
X158531571Y-98284600D01*
X159174428Y-99713171D02*
X159174428Y-98213171D01*
X159531571Y-98213171D01*
X159745857Y-98284600D01*
X159888714Y-98427457D01*
X159960142Y-98570314D01*
X160031571Y-98856028D01*
X160031571Y-99070314D01*
X159960142Y-99356028D01*
X159888714Y-99498885D01*
X159745857Y-99641742D01*
X159531571Y-99713171D01*
X159174428Y-99713171D01*
X160603000Y-99284600D02*
X161317285Y-99284600D01*
X160460142Y-99713171D02*
X160960142Y-98213171D01*
X161460142Y-99713171D01*
X162873714Y-96919171D02*
X162873714Y-95419171D01*
X163516571Y-95562028D02*
X163588000Y-95490600D01*
X163730857Y-95419171D01*
X164088000Y-95419171D01*
X164230857Y-95490600D01*
X164302285Y-95562028D01*
X164373714Y-95704885D01*
X164373714Y-95847742D01*
X164302285Y-96062028D01*
X163445142Y-96919171D01*
X164373714Y-96919171D01*
X165873714Y-96776314D02*
X165802285Y-96847742D01*
X165588000Y-96919171D01*
X165445142Y-96919171D01*
X165230857Y-96847742D01*
X165088000Y-96704885D01*
X165016571Y-96562028D01*
X164945142Y-96276314D01*
X164945142Y-96062028D01*
X165016571Y-95776314D01*
X165088000Y-95633457D01*
X165230857Y-95490600D01*
X165445142Y-95419171D01*
X165588000Y-95419171D01*
X165802285Y-95490600D01*
X165873714Y-95562028D01*
X158428428Y-92442600D02*
X158285571Y-92371171D01*
X158071285Y-92371171D01*
X157857000Y-92442600D01*
X157714142Y-92585457D01*
X157642714Y-92728314D01*
X157571285Y-93014028D01*
X157571285Y-93228314D01*
X157642714Y-93514028D01*
X157714142Y-93656885D01*
X157857000Y-93799742D01*
X158071285Y-93871171D01*
X158214142Y-93871171D01*
X158428428Y-93799742D01*
X158499857Y-93728314D01*
X158499857Y-93228314D01*
X158214142Y-93228314D01*
X159142714Y-93871171D02*
X159142714Y-92371171D01*
X159999857Y-93871171D01*
X159999857Y-92371171D01*
X160714142Y-93871171D02*
X160714142Y-92371171D01*
X161071285Y-92371171D01*
X161285571Y-92442600D01*
X161428428Y-92585457D01*
X161499857Y-92728314D01*
X161571285Y-93014028D01*
X161571285Y-93228314D01*
X161499857Y-93514028D01*
X161428428Y-93656885D01*
X161285571Y-93799742D01*
X161071285Y-93871171D01*
X160714142Y-93871171D01*
X160142714Y-91331171D02*
X159642714Y-90616885D01*
X159285571Y-91331171D02*
X159285571Y-89831171D01*
X159857000Y-89831171D01*
X159999857Y-89902600D01*
X160071285Y-89974028D01*
X160142714Y-90116885D01*
X160142714Y-90331171D01*
X160071285Y-90474028D01*
X159999857Y-90545457D01*
X159857000Y-90616885D01*
X159285571Y-90616885D01*
X160642714Y-89831171D02*
X161642714Y-91331171D01*
X161642714Y-89831171D02*
X160642714Y-91331171D01*
X159428428Y-87291171D02*
X160285571Y-87291171D01*
X159857000Y-88791171D02*
X159857000Y-87291171D01*
X160642714Y-87291171D02*
X161642714Y-88791171D01*
X161642714Y-87291171D02*
X160642714Y-88791171D01*
X161945142Y-84497171D02*
X161945142Y-85711457D01*
X162016571Y-85854314D01*
X162088000Y-85925742D01*
X162230857Y-85997171D01*
X162516571Y-85997171D01*
X162659428Y-85925742D01*
X162730857Y-85854314D01*
X162802285Y-85711457D01*
X162802285Y-84497171D01*
X163445142Y-85568600D02*
X164159428Y-85568600D01*
X163302285Y-85997171D02*
X163802285Y-84497171D01*
X164302285Y-85997171D01*
X165659428Y-85997171D02*
X165159428Y-85282885D01*
X164802285Y-85997171D02*
X164802285Y-84497171D01*
X165373714Y-84497171D01*
X165516571Y-84568600D01*
X165588000Y-84640028D01*
X165659428Y-84782885D01*
X165659428Y-84997171D01*
X165588000Y-85140028D01*
X165516571Y-85211457D01*
X165373714Y-85282885D01*
X164802285Y-85282885D01*
X166088000Y-84497171D02*
X166945142Y-84497171D01*
X166516571Y-85997171D02*
X166516571Y-84497171D01*
X160972571Y-82377742D02*
X162115428Y-82377742D01*
X160972571Y-79583742D02*
X162115428Y-79583742D01*
X161544000Y-80155171D02*
X161544000Y-79012314D01*
X162695142Y-75861171D02*
X163195142Y-77361171D01*
X163695142Y-75861171D01*
X164195142Y-77361171D02*
X164195142Y-75861171D01*
X164909428Y-77361171D02*
X164909428Y-75861171D01*
X165766571Y-77361171D01*
X165766571Y-75861171D01*
X128382285Y-76704000D02*
X129096571Y-76704000D01*
X128239428Y-77132571D02*
X128739428Y-75632571D01*
X129239428Y-77132571D01*
X129525142Y-75632571D02*
X130382285Y-75632571D01*
X129953714Y-77132571D02*
X129953714Y-75632571D01*
X131668000Y-75704000D02*
X131525142Y-75632571D01*
X131310857Y-75632571D01*
X131096571Y-75704000D01*
X130953714Y-75846857D01*
X130882285Y-75989714D01*
X130810857Y-76275428D01*
X130810857Y-76489714D01*
X130882285Y-76775428D01*
X130953714Y-76918285D01*
X131096571Y-77061142D01*
X131310857Y-77132571D01*
X131453714Y-77132571D01*
X131668000Y-77061142D01*
X131739428Y-76989714D01*
X131739428Y-76489714D01*
X131453714Y-76489714D01*
X132382285Y-77132571D02*
X132382285Y-75632571D01*
X132882285Y-76704000D01*
X133382285Y-75632571D01*
X133382285Y-77132571D01*
X133953714Y-75632571D02*
X134882285Y-75632571D01*
X134382285Y-76204000D01*
X134596571Y-76204000D01*
X134739428Y-76275428D01*
X134810857Y-76346857D01*
X134882285Y-76489714D01*
X134882285Y-76846857D01*
X134810857Y-76989714D01*
X134739428Y-77061142D01*
X134596571Y-77132571D01*
X134168000Y-77132571D01*
X134025142Y-77061142D01*
X133953714Y-76989714D01*
X135382285Y-75632571D02*
X136310857Y-75632571D01*
X135810857Y-76204000D01*
X136025142Y-76204000D01*
X136168000Y-76275428D01*
X136239428Y-76346857D01*
X136310857Y-76489714D01*
X136310857Y-76846857D01*
X136239428Y-76989714D01*
X136168000Y-77061142D01*
X136025142Y-77132571D01*
X135596571Y-77132571D01*
X135453714Y-77061142D01*
X135382285Y-76989714D01*
X136882285Y-75775428D02*
X136953714Y-75704000D01*
X137096571Y-75632571D01*
X137453714Y-75632571D01*
X137596571Y-75704000D01*
X137668000Y-75775428D01*
X137739428Y-75918285D01*
X137739428Y-76061142D01*
X137668000Y-76275428D01*
X136810857Y-77132571D01*
X137739428Y-77132571D01*
X138382285Y-77132571D02*
X138382285Y-75632571D01*
X138739428Y-75632571D01*
X138953714Y-75704000D01*
X139096571Y-75846857D01*
X139168000Y-75989714D01*
X139239428Y-76275428D01*
X139239428Y-76489714D01*
X139168000Y-76775428D01*
X139096571Y-76918285D01*
X138953714Y-77061142D01*
X138739428Y-77132571D01*
X138382285Y-77132571D01*
X139882285Y-76561142D02*
X141025142Y-76561142D01*
X142453714Y-75632571D02*
X141739428Y-75632571D01*
X141668000Y-76346857D01*
X141739428Y-76275428D01*
X141882285Y-76204000D01*
X142239428Y-76204000D01*
X142382285Y-76275428D01*
X142453714Y-76346857D01*
X142525142Y-76489714D01*
X142525142Y-76846857D01*
X142453714Y-76989714D01*
X142382285Y-77061142D01*
X142239428Y-77132571D01*
X141882285Y-77132571D01*
X141739428Y-77061142D01*
X141668000Y-76989714D01*
X143168000Y-77132571D02*
X143168000Y-75632571D01*
X144025142Y-77132571D01*
X144025142Y-75632571D01*
X144596571Y-75632571D02*
X145525142Y-75632571D01*
X145025142Y-76204000D01*
X145239428Y-76204000D01*
X145382285Y-76275428D01*
X145453714Y-76346857D01*
X145525142Y-76489714D01*
X145525142Y-76846857D01*
X145453714Y-76989714D01*
X145382285Y-77061142D01*
X145239428Y-77132571D01*
X144810857Y-77132571D01*
X144668000Y-77061142D01*
X144596571Y-76989714D01*
X146953714Y-77132571D02*
X146096571Y-77132571D01*
X146525142Y-77132571D02*
X146525142Y-75632571D01*
X146382285Y-75846857D01*
X146239428Y-75989714D01*
X146096571Y-76061142D01*
X151070857Y-95516000D02*
X150928000Y-95444571D01*
X150713714Y-95444571D01*
X150499428Y-95516000D01*
X150356571Y-95658857D01*
X150285142Y-95801714D01*
X150213714Y-96087428D01*
X150213714Y-96301714D01*
X150285142Y-96587428D01*
X150356571Y-96730285D01*
X150499428Y-96873142D01*
X150713714Y-96944571D01*
X150856571Y-96944571D01*
X151070857Y-96873142D01*
X151142285Y-96801714D01*
X151142285Y-96301714D01*
X150856571Y-96301714D01*
X151785142Y-96944571D02*
X151785142Y-95444571D01*
X152642285Y-96944571D01*
X152642285Y-95444571D01*
X153356571Y-96944571D02*
X153356571Y-95444571D01*
X153713714Y-95444571D01*
X153928000Y-95516000D01*
X154070857Y-95658857D01*
X154142285Y-95801714D01*
X154213714Y-96087428D01*
X154213714Y-96301714D01*
X154142285Y-96587428D01*
X154070857Y-96730285D01*
X153928000Y-96873142D01*
X153713714Y-96944571D01*
X153356571Y-96944571D01*
X150213714Y-94333142D02*
X150428000Y-94404571D01*
X150785142Y-94404571D01*
X150928000Y-94333142D01*
X150999428Y-94261714D01*
X151070857Y-94118857D01*
X151070857Y-93976000D01*
X150999428Y-93833142D01*
X150928000Y-93761714D01*
X150785142Y-93690285D01*
X150499428Y-93618857D01*
X150356571Y-93547428D01*
X150285142Y-93476000D01*
X150213714Y-93333142D01*
X150213714Y-93190285D01*
X150285142Y-93047428D01*
X150356571Y-92976000D01*
X150499428Y-92904571D01*
X150856571Y-92904571D01*
X151070857Y-92976000D01*
X151999428Y-93690285D02*
X151999428Y-94404571D01*
X151499428Y-92904571D02*
X151999428Y-93690285D01*
X152499428Y-92904571D01*
X152999428Y-94404571D02*
X152999428Y-92904571D01*
X153856571Y-94404571D01*
X153856571Y-92904571D01*
X155428000Y-94261714D02*
X155356571Y-94333142D01*
X155142285Y-94404571D01*
X154999428Y-94404571D01*
X154785142Y-94333142D01*
X154642285Y-94190285D01*
X154570857Y-94047428D01*
X154499428Y-93761714D01*
X154499428Y-93547428D01*
X154570857Y-93261714D01*
X154642285Y-93118857D01*
X154785142Y-92976000D01*
X154999428Y-92904571D01*
X155142285Y-92904571D01*
X155356571Y-92976000D01*
X155428000Y-93047428D01*
X146165285Y-91356571D02*
X146165285Y-89856571D01*
X146879571Y-91356571D02*
X146879571Y-89856571D01*
X147736714Y-91356571D01*
X147736714Y-89856571D01*
X148451000Y-91356571D02*
X148451000Y-89856571D01*
X148808142Y-89856571D01*
X149022428Y-89928000D01*
X149165285Y-90070857D01*
X149236714Y-90213714D01*
X149308142Y-90499428D01*
X149308142Y-90713714D01*
X149236714Y-90999428D01*
X149165285Y-91142285D01*
X149022428Y-91285142D01*
X148808142Y-91356571D01*
X148451000Y-91356571D01*
X133155428Y-108851000D02*
X133012571Y-108779571D01*
X132798285Y-108779571D01*
X132584000Y-108851000D01*
X132441142Y-108993857D01*
X132369714Y-109136714D01*
X132298285Y-109422428D01*
X132298285Y-109636714D01*
X132369714Y-109922428D01*
X132441142Y-110065285D01*
X132584000Y-110208142D01*
X132798285Y-110279571D01*
X132941142Y-110279571D01*
X133155428Y-110208142D01*
X133226857Y-110136714D01*
X133226857Y-109636714D01*
X132941142Y-109636714D01*
X133869714Y-110279571D02*
X133869714Y-108779571D01*
X134726857Y-110279571D01*
X134726857Y-108779571D01*
X135441142Y-110279571D02*
X135441142Y-108779571D01*
X135798285Y-108779571D01*
X136012571Y-108851000D01*
X136155428Y-108993857D01*
X136226857Y-109136714D01*
X136298285Y-109422428D01*
X136298285Y-109636714D01*
X136226857Y-109922428D01*
X136155428Y-110065285D01*
X136012571Y-110208142D01*
X135798285Y-110279571D01*
X135441142Y-110279571D01*
X133726857Y-107739571D02*
X133226857Y-107025285D01*
X132869714Y-107739571D02*
X132869714Y-106239571D01*
X133441142Y-106239571D01*
X133584000Y-106311000D01*
X133655428Y-106382428D01*
X133726857Y-106525285D01*
X133726857Y-106739571D01*
X133655428Y-106882428D01*
X133584000Y-106953857D01*
X133441142Y-107025285D01*
X132869714Y-107025285D01*
X134298285Y-107668142D02*
X134512571Y-107739571D01*
X134869714Y-107739571D01*
X135012571Y-107668142D01*
X135084000Y-107596714D01*
X135155428Y-107453857D01*
X135155428Y-107311000D01*
X135084000Y-107168142D01*
X135012571Y-107096714D01*
X134869714Y-107025285D01*
X134584000Y-106953857D01*
X134441142Y-106882428D01*
X134369714Y-106811000D01*
X134298285Y-106668142D01*
X134298285Y-106525285D01*
X134369714Y-106382428D01*
X134441142Y-106311000D01*
X134584000Y-106239571D01*
X134941142Y-106239571D01*
X135155428Y-106311000D01*
X135584000Y-106239571D02*
X136441142Y-106239571D01*
X136012571Y-107739571D02*
X136012571Y-106239571D01*
X113724428Y-91833000D02*
X113581571Y-91761571D01*
X113367285Y-91761571D01*
X113153000Y-91833000D01*
X113010142Y-91975857D01*
X112938714Y-92118714D01*
X112867285Y-92404428D01*
X112867285Y-92618714D01*
X112938714Y-92904428D01*
X113010142Y-93047285D01*
X113153000Y-93190142D01*
X113367285Y-93261571D01*
X113510142Y-93261571D01*
X113724428Y-93190142D01*
X113795857Y-93118714D01*
X113795857Y-92618714D01*
X113510142Y-92618714D01*
X114438714Y-93261571D02*
X114438714Y-91761571D01*
X115295857Y-93261571D01*
X115295857Y-91761571D01*
X116010142Y-93261571D02*
X116010142Y-91761571D01*
X116367285Y-91761571D01*
X116581571Y-91833000D01*
X116724428Y-91975857D01*
X116795857Y-92118714D01*
X116867285Y-92404428D01*
X116867285Y-92618714D01*
X116795857Y-92904428D01*
X116724428Y-93047285D01*
X116581571Y-93190142D01*
X116367285Y-93261571D01*
X116010142Y-93261571D01*
X113041857Y-90650142D02*
X113256142Y-90721571D01*
X113613285Y-90721571D01*
X113756142Y-90650142D01*
X113827571Y-90578714D01*
X113899000Y-90435857D01*
X113899000Y-90293000D01*
X113827571Y-90150142D01*
X113756142Y-90078714D01*
X113613285Y-90007285D01*
X113327571Y-89935857D01*
X113184714Y-89864428D01*
X113113285Y-89793000D01*
X113041857Y-89650142D01*
X113041857Y-89507285D01*
X113113285Y-89364428D01*
X113184714Y-89293000D01*
X113327571Y-89221571D01*
X113684714Y-89221571D01*
X113899000Y-89293000D01*
X115399000Y-90578714D02*
X115327571Y-90650142D01*
X115113285Y-90721571D01*
X114970428Y-90721571D01*
X114756142Y-90650142D01*
X114613285Y-90507285D01*
X114541857Y-90364428D01*
X114470428Y-90078714D01*
X114470428Y-89864428D01*
X114541857Y-89578714D01*
X114613285Y-89435857D01*
X114756142Y-89293000D01*
X114970428Y-89221571D01*
X115113285Y-89221571D01*
X115327571Y-89293000D01*
X115399000Y-89364428D01*
X116756142Y-90721571D02*
X116041857Y-90721571D01*
X116041857Y-89221571D01*
X112970428Y-88110142D02*
X113184714Y-88181571D01*
X113541857Y-88181571D01*
X113684714Y-88110142D01*
X113756142Y-88038714D01*
X113827571Y-87895857D01*
X113827571Y-87753000D01*
X113756142Y-87610142D01*
X113684714Y-87538714D01*
X113541857Y-87467285D01*
X113256142Y-87395857D01*
X113113285Y-87324428D01*
X113041857Y-87253000D01*
X112970428Y-87110142D01*
X112970428Y-86967285D01*
X113041857Y-86824428D01*
X113113285Y-86753000D01*
X113256142Y-86681571D01*
X113613285Y-86681571D01*
X113827571Y-86753000D01*
X114470428Y-88181571D02*
X114470428Y-86681571D01*
X114827571Y-86681571D01*
X115041857Y-86753000D01*
X115184714Y-86895857D01*
X115256142Y-87038714D01*
X115327571Y-87324428D01*
X115327571Y-87538714D01*
X115256142Y-87824428D01*
X115184714Y-87967285D01*
X115041857Y-88110142D01*
X114827571Y-88181571D01*
X114470428Y-88181571D01*
X115899000Y-87753000D02*
X116613285Y-87753000D01*
X115756142Y-88181571D02*
X116256142Y-86681571D01*
X116756142Y-88181571D01*
X113724428Y-102882000D02*
X113581571Y-102810571D01*
X113367285Y-102810571D01*
X113153000Y-102882000D01*
X113010142Y-103024857D01*
X112938714Y-103167714D01*
X112867285Y-103453428D01*
X112867285Y-103667714D01*
X112938714Y-103953428D01*
X113010142Y-104096285D01*
X113153000Y-104239142D01*
X113367285Y-104310571D01*
X113510142Y-104310571D01*
X113724428Y-104239142D01*
X113795857Y-104167714D01*
X113795857Y-103667714D01*
X113510142Y-103667714D01*
X114438714Y-104310571D02*
X114438714Y-102810571D01*
X115295857Y-104310571D01*
X115295857Y-102810571D01*
X116010142Y-104310571D02*
X116010142Y-102810571D01*
X116367285Y-102810571D01*
X116581571Y-102882000D01*
X116724428Y-103024857D01*
X116795857Y-103167714D01*
X116867285Y-103453428D01*
X116867285Y-103667714D01*
X116795857Y-103953428D01*
X116724428Y-104096285D01*
X116581571Y-104239142D01*
X116367285Y-104310571D01*
X116010142Y-104310571D01*
X115438714Y-101770571D02*
X114938714Y-101056285D01*
X114581571Y-101770571D02*
X114581571Y-100270571D01*
X115153000Y-100270571D01*
X115295857Y-100342000D01*
X115367285Y-100413428D01*
X115438714Y-100556285D01*
X115438714Y-100770571D01*
X115367285Y-100913428D01*
X115295857Y-100984857D01*
X115153000Y-101056285D01*
X114581571Y-101056285D01*
X115938714Y-100270571D02*
X116938714Y-101770571D01*
X116938714Y-100270571D02*
X115938714Y-101770571D01*
X114724428Y-97730571D02*
X115581571Y-97730571D01*
X115153000Y-99230571D02*
X115153000Y-97730571D01*
X115938714Y-97730571D02*
X116938714Y-99230571D01*
X116938714Y-97730571D02*
X115938714Y-99230571D01*
X124142571Y-109581142D02*
X125285428Y-109581142D01*
X124142571Y-107168142D02*
X125285428Y-107168142D01*
X124714000Y-107739571D02*
X124714000Y-106596714D01*
X116522571Y-82149142D02*
X117665428Y-82149142D01*
X116522571Y-79863142D02*
X117665428Y-79863142D01*
X117094000Y-80434571D02*
X117094000Y-79291714D01*
X137394428Y-105199571D02*
X136894428Y-104485285D01*
X136537285Y-105199571D02*
X136537285Y-103699571D01*
X137108714Y-103699571D01*
X137251571Y-103771000D01*
X137323000Y-103842428D01*
X137394428Y-103985285D01*
X137394428Y-104199571D01*
X137323000Y-104342428D01*
X137251571Y-104413857D01*
X137108714Y-104485285D01*
X136537285Y-104485285D01*
X138037285Y-104413857D02*
X138537285Y-104413857D01*
X138751571Y-105199571D02*
X138037285Y-105199571D01*
X138037285Y-103699571D01*
X138751571Y-103699571D01*
X139323000Y-105128142D02*
X139537285Y-105199571D01*
X139894428Y-105199571D01*
X140037285Y-105128142D01*
X140108714Y-105056714D01*
X140180142Y-104913857D01*
X140180142Y-104771000D01*
X140108714Y-104628142D01*
X140037285Y-104556714D01*
X139894428Y-104485285D01*
X139608714Y-104413857D01*
X139465857Y-104342428D01*
X139394428Y-104271000D01*
X139323000Y-104128142D01*
X139323000Y-103985285D01*
X139394428Y-103842428D01*
X139465857Y-103771000D01*
X139608714Y-103699571D01*
X139965857Y-103699571D01*
X140180142Y-103771000D01*
X140823000Y-104413857D02*
X141323000Y-104413857D01*
X141537285Y-105199571D02*
X140823000Y-105199571D01*
X140823000Y-103699571D01*
X141537285Y-103699571D01*
X141965857Y-103699571D02*
X142823000Y-103699571D01*
X142394428Y-105199571D02*
X142394428Y-103699571D01*
X118423714Y-85387571D02*
X118423714Y-83887571D01*
X119066571Y-84030428D02*
X119138000Y-83959000D01*
X119280857Y-83887571D01*
X119638000Y-83887571D01*
X119780857Y-83959000D01*
X119852285Y-84030428D01*
X119923714Y-84173285D01*
X119923714Y-84316142D01*
X119852285Y-84530428D01*
X118995142Y-85387571D01*
X119923714Y-85387571D01*
X121423714Y-85244714D02*
X121352285Y-85316142D01*
X121138000Y-85387571D01*
X120995142Y-85387571D01*
X120780857Y-85316142D01*
X120638000Y-85173285D01*
X120566571Y-85030428D01*
X120495142Y-84744714D01*
X120495142Y-84530428D01*
X120566571Y-84244714D01*
X120638000Y-84101857D01*
X120780857Y-83959000D01*
X120995142Y-83887571D01*
X121138000Y-83887571D01*
X121352285Y-83959000D01*
X121423714Y-84030428D01*
X117241142Y-94936571D02*
X117241142Y-96150857D01*
X117312571Y-96293714D01*
X117384000Y-96365142D01*
X117526857Y-96436571D01*
X117812571Y-96436571D01*
X117955428Y-96365142D01*
X118026857Y-96293714D01*
X118098285Y-96150857D01*
X118098285Y-94936571D01*
X118741142Y-96008000D02*
X119455428Y-96008000D01*
X118598285Y-96436571D02*
X119098285Y-94936571D01*
X119598285Y-96436571D01*
X120955428Y-96436571D02*
X120455428Y-95722285D01*
X120098285Y-96436571D02*
X120098285Y-94936571D01*
X120669714Y-94936571D01*
X120812571Y-95008000D01*
X120884000Y-95079428D01*
X120955428Y-95222285D01*
X120955428Y-95436571D01*
X120884000Y-95579428D01*
X120812571Y-95650857D01*
X120669714Y-95722285D01*
X120098285Y-95722285D01*
X121384000Y-94936571D02*
X122241142Y-94936571D01*
X121812571Y-96436571D02*
X121812571Y-94936571D01*
X118499142Y-75632571D02*
X118999142Y-77132571D01*
X119499142Y-75632571D01*
X119999142Y-77132571D02*
X119999142Y-75632571D01*
X120713428Y-77132571D02*
X120713428Y-75632571D01*
X121570571Y-77132571D01*
X121570571Y-75632571D01*
D12*
%TO.C,C1*%
X168629000Y-80459948D02*
X168629000Y-80982452D01*
X167159000Y-80459948D02*
X167159000Y-80982452D01*
%TO.C,C2*%
X123598000Y-80129748D02*
X123598000Y-80652252D01*
X125068000Y-80129748D02*
X125068000Y-80652252D01*
%TO.C,C3*%
X174525000Y-106901348D02*
X174525000Y-107423852D01*
X175995000Y-106901348D02*
X175995000Y-107423852D01*
%TO.C,C4*%
X128135748Y-99849000D02*
X128658252Y-99849000D01*
X128135748Y-101319000D02*
X128658252Y-101319000D01*
%TO.C,D1*%
X194751200Y-101249600D02*
X192066200Y-101249600D01*
X192066200Y-101249600D02*
X192066200Y-103169600D01*
X192066200Y-103169600D02*
X194751200Y-103169600D01*
%TO.C,J1*%
X164338000Y-83600600D02*
X163008000Y-83600600D01*
X163008000Y-83600600D02*
X163008000Y-82270600D01*
X163008000Y-81000600D02*
X163008000Y-78400600D01*
X165668000Y-78400600D02*
X163008000Y-78400600D01*
X165668000Y-81000600D02*
X165668000Y-78400600D01*
X165668000Y-81000600D02*
X163008000Y-81000600D01*
%TO.C,J2*%
X165668000Y-91922600D02*
X163008000Y-91922600D01*
X165668000Y-91922600D02*
X165668000Y-86782600D01*
X165668000Y-86782600D02*
X163008000Y-86782600D01*
X163008000Y-91922600D02*
X163008000Y-86782600D01*
X163008000Y-94522600D02*
X163008000Y-93192600D01*
X164338000Y-94522600D02*
X163008000Y-94522600D01*
%TO.C,J3*%
X164338000Y-105444600D02*
X163008000Y-105444600D01*
X163008000Y-105444600D02*
X163008000Y-104114600D01*
X163008000Y-102844600D02*
X163008000Y-97704600D01*
X165668000Y-97704600D02*
X163008000Y-97704600D01*
X165668000Y-102844600D02*
X165668000Y-97704600D01*
X165668000Y-102844600D02*
X163008000Y-102844600D01*
%TO.C,J4*%
X173415000Y-107416600D02*
X170755000Y-107416600D01*
X173415000Y-107416600D02*
X173415000Y-104816600D01*
X173415000Y-104816600D02*
X170755000Y-104816600D01*
X170755000Y-107416600D02*
X170755000Y-104816600D01*
X170755000Y-110016600D02*
X170755000Y-108686600D01*
X172085000Y-110016600D02*
X170755000Y-110016600D01*
%TO.C,J5*%
X121218000Y-80772000D02*
X118558000Y-80772000D01*
X121218000Y-80772000D02*
X121218000Y-78172000D01*
X121218000Y-78172000D02*
X118558000Y-78172000D01*
X118558000Y-80772000D02*
X118558000Y-78172000D01*
X118558000Y-83372000D02*
X118558000Y-82042000D01*
X119888000Y-83372000D02*
X118558000Y-83372000D01*
%TO.C,J6*%
X119888000Y-104962000D02*
X118558000Y-104962000D01*
X118558000Y-104962000D02*
X118558000Y-103632000D01*
X118558000Y-102362000D02*
X118558000Y-97222000D01*
X121218000Y-97222000D02*
X118558000Y-97222000D01*
X121218000Y-102362000D02*
X121218000Y-97222000D01*
X121218000Y-102362000D02*
X118558000Y-102362000D01*
%TO.C,J7*%
X121218000Y-91313000D02*
X118558000Y-91313000D01*
X121218000Y-91313000D02*
X121218000Y-86173000D01*
X121218000Y-86173000D02*
X118558000Y-86173000D01*
X118558000Y-91313000D02*
X118558000Y-86173000D01*
X118558000Y-93913000D02*
X118558000Y-92583000D01*
X119888000Y-93913000D02*
X118558000Y-93913000D01*
%TO.C,J8*%
X139573000Y-110931000D02*
X138243000Y-110931000D01*
X138243000Y-110931000D02*
X138243000Y-109601000D01*
X138243000Y-108331000D02*
X138243000Y-105731000D01*
X140903000Y-105731000D02*
X138243000Y-105731000D01*
X140903000Y-108331000D02*
X140903000Y-105731000D01*
X140903000Y-108331000D02*
X138243000Y-108331000D01*
%TO.C,J9*%
X127508000Y-110931000D02*
X126178000Y-110931000D01*
X126178000Y-110931000D02*
X126178000Y-109601000D01*
X126178000Y-108331000D02*
X126178000Y-105731000D01*
X128838000Y-105731000D02*
X126178000Y-105731000D01*
X128838000Y-108331000D02*
X128838000Y-105731000D01*
X128838000Y-108331000D02*
X126178000Y-108331000D01*
D13*
%TO.C,J10*%
X149128000Y-84231000D02*
X149128000Y-81631000D01*
X146528000Y-81631000D02*
X146528000Y-82143000D01*
X146528000Y-84231000D02*
X146528000Y-83700670D01*
%TO.C,J11*%
X172242000Y-91333800D02*
X172242000Y-91864130D01*
X172242000Y-93933800D02*
X172242000Y-93421800D01*
X169642000Y-91333800D02*
X169642000Y-93933800D01*
D12*
%TO.C,J12*%
X149031000Y-94996000D02*
X146371000Y-94996000D01*
X149031000Y-94996000D02*
X149031000Y-92396000D01*
X149031000Y-92396000D02*
X146371000Y-92396000D01*
X146371000Y-94996000D02*
X146371000Y-92396000D01*
X146371000Y-97596000D02*
X146371000Y-96266000D01*
X147701000Y-97596000D02*
X146371000Y-97596000D01*
%TO.C,J13*%
X191195000Y-108432600D02*
X188535000Y-108432600D01*
X191195000Y-108432600D02*
X191195000Y-103292600D01*
X191195000Y-103292600D02*
X188535000Y-103292600D01*
X188535000Y-108432600D02*
X188535000Y-103292600D01*
X188535000Y-111032600D02*
X188535000Y-109702600D01*
X189865000Y-111032600D02*
X188535000Y-111032600D01*
%TO.C,L1*%
X188187400Y-86480222D02*
X188187400Y-85680978D01*
X189307400Y-86480222D02*
X189307400Y-85680978D01*
%TO.C,R1*%
X124052000Y-89561936D02*
X124052000Y-90016064D01*
X122582000Y-89561936D02*
X122582000Y-90016064D01*
%TO.C,R2*%
X125249000Y-88291936D02*
X125249000Y-88746064D01*
X126719000Y-88291936D02*
X126719000Y-88746064D01*
%TO.C,R3*%
X193524136Y-99188600D02*
X193978264Y-99188600D01*
X193524136Y-100658600D02*
X193978264Y-100658600D01*
%TO.C,R4*%
X171502400Y-87834736D02*
X171502400Y-88288864D01*
X172972400Y-87834736D02*
X172972400Y-88288864D01*
D14*
%TO.C,U1*%
X130398000Y-80900000D02*
X142398000Y-80900000D01*
X142398000Y-80900000D02*
X142398000Y-80900000D01*
X142398000Y-80900000D02*
X130398000Y-80900000D01*
X130398000Y-80900000D02*
X130398000Y-80900000D01*
X142498000Y-87400000D02*
X142498000Y-87400000D01*
X142498000Y-87400000D02*
X142498000Y-88400000D01*
X142498000Y-88400000D02*
X142498000Y-88400000D01*
X142498000Y-88400000D02*
X142498000Y-87400000D01*
X130298000Y-87400000D02*
X130298000Y-87400000D01*
X130298000Y-87400000D02*
X130298000Y-88400000D01*
X130298000Y-88400000D02*
X130298000Y-88400000D01*
X130298000Y-88400000D02*
X130298000Y-87400000D01*
X130398000Y-96900000D02*
X142498000Y-96900000D01*
X142498000Y-96900000D02*
X142498000Y-96900000D01*
X142498000Y-96900000D02*
X130398000Y-96900000D01*
X130398000Y-96900000D02*
X130398000Y-96900000D01*
D15*
X144198000Y-95900000D02*
X144198000Y-95900000D01*
X144298000Y-95900000D02*
X144298000Y-95900000D01*
X144198000Y-95900000D02*
X144198000Y-95900000D01*
X144298000Y-95900000D02*
G75*
G02*
X144198000Y-95900000I-50000J0D01*
G01*
X144198000Y-95900000D02*
G75*
G02*
X144298000Y-95900000I50000J0D01*
G01*
X144298000Y-95900000D02*
G75*
G02*
X144198000Y-95900000I-50000J0D01*
G01*
D14*
%TO.C,U2*%
X178876000Y-86546600D02*
X183876000Y-86546600D01*
X183876000Y-86546600D02*
X183876000Y-86546600D01*
X183876000Y-86546600D02*
X178876000Y-86546600D01*
X178876000Y-86546600D02*
X178876000Y-86546600D01*
D15*
X174376000Y-87146600D02*
X174376000Y-87146600D01*
X174376000Y-87046600D02*
X174376000Y-87046600D01*
X174376000Y-87146600D02*
X174376000Y-87146600D01*
X174376000Y-87046600D02*
G75*
G02*
X174376000Y-87146600I0J-50000D01*
G01*
X174376000Y-87146600D02*
G75*
G02*
X174376000Y-87046600I0J50000D01*
G01*
X174376000Y-87046600D02*
G75*
G02*
X174376000Y-87146600I0J-50000D01*
G01*
D12*
%TO.C,J14*%
X165404800Y-132267000D02*
X164074800Y-132267000D01*
X164074800Y-132267000D02*
X164074800Y-130937000D01*
X164074800Y-129667000D02*
X164074800Y-127067000D01*
X166734800Y-127067000D02*
X164074800Y-127067000D01*
X166734800Y-129667000D02*
X166734800Y-127067000D01*
X166734800Y-129667000D02*
X164074800Y-129667000D01*
%TO.C,J15*%
X153730000Y-128422400D02*
X151070000Y-128422400D01*
X153730000Y-128422400D02*
X153730000Y-125822400D01*
X153730000Y-125822400D02*
X151070000Y-125822400D01*
X151070000Y-128422400D02*
X151070000Y-125822400D01*
X151070000Y-131022400D02*
X151070000Y-129692400D01*
X152400000Y-131022400D02*
X151070000Y-131022400D01*
D14*
%TO.C,J16*%
X176127400Y-137696400D02*
X170622400Y-137696400D01*
X170622400Y-137696400D02*
X170577400Y-133446400D01*
X170577400Y-126446400D02*
X170577400Y-122196400D01*
X170577400Y-122196400D02*
X175627400Y-122196400D01*
X186127400Y-137696400D02*
X191677400Y-137696400D01*
X191677400Y-137696400D02*
X191677400Y-133446400D01*
X191677400Y-126446400D02*
X191677400Y-122196400D01*
X191677400Y-122196400D02*
X186627400Y-122196400D01*
D15*
%TO.C,J17*%
X119118800Y-126952400D02*
X119118800Y-126952400D01*
X119018800Y-126952400D02*
X119018800Y-126952400D01*
X147418800Y-128152400D02*
X142618800Y-128152400D01*
X147418800Y-126152400D02*
X147418800Y-128152400D01*
X142618800Y-126152400D02*
X147418800Y-126152400D01*
X119618800Y-127152400D02*
X119618800Y-127152400D01*
X142618800Y-127152400D02*
X142618800Y-127152400D01*
X119018800Y-126952400D02*
G75*
G02*
X119118800Y-126952400I50000J0D01*
G01*
X119118800Y-126952400D02*
G75*
G02*
X119018800Y-126952400I-50000J0D01*
G01*
X142618800Y-127152400D02*
G75*
G02*
X119618800Y-127152400I-11500000J0D01*
G01*
X119618800Y-127152400D02*
G75*
G02*
X142618800Y-127152400I11500000J0D01*
G01*
%TD*%
%TO.C,REF\u002A\u002A*%
D16*
X198666666Y-67252380D02*
X198333333Y-66776190D01*
X198095238Y-67252380D02*
X198095238Y-66252380D01*
X198476190Y-66252380D01*
X198571428Y-66300000D01*
X198619047Y-66347619D01*
X198666666Y-66442857D01*
X198666666Y-66585714D01*
X198619047Y-66680952D01*
X198571428Y-66728571D01*
X198476190Y-66776190D01*
X198095238Y-66776190D01*
X199095238Y-66728571D02*
X199428571Y-66728571D01*
X199571428Y-67252380D02*
X199095238Y-67252380D01*
X199095238Y-66252380D01*
X199571428Y-66252380D01*
X200333333Y-66728571D02*
X200000000Y-66728571D01*
X200000000Y-67252380D02*
X200000000Y-66252380D01*
X200476190Y-66252380D01*
X201000000Y-66252380D02*
X201000000Y-66490476D01*
X200761904Y-66395238D02*
X201000000Y-66490476D01*
X201238095Y-66395238D01*
X200857142Y-66680952D02*
X201000000Y-66490476D01*
X201142857Y-66680952D01*
X201761904Y-66252380D02*
X201761904Y-66490476D01*
X201523809Y-66395238D02*
X201761904Y-66490476D01*
X202000000Y-66395238D01*
X201619047Y-66680952D02*
X201761904Y-66490476D01*
X201904761Y-66680952D01*
X109666666Y-67252380D02*
X109333333Y-66776190D01*
X109095238Y-67252380D02*
X109095238Y-66252380D01*
X109476190Y-66252380D01*
X109571428Y-66300000D01*
X109619047Y-66347619D01*
X109666666Y-66442857D01*
X109666666Y-66585714D01*
X109619047Y-66680952D01*
X109571428Y-66728571D01*
X109476190Y-66776190D01*
X109095238Y-66776190D01*
X110095238Y-66728571D02*
X110428571Y-66728571D01*
X110571428Y-67252380D02*
X110095238Y-67252380D01*
X110095238Y-66252380D01*
X110571428Y-66252380D01*
X111333333Y-66728571D02*
X111000000Y-66728571D01*
X111000000Y-67252380D02*
X111000000Y-66252380D01*
X111476190Y-66252380D01*
X112000000Y-66252380D02*
X112000000Y-66490476D01*
X111761904Y-66395238D02*
X112000000Y-66490476D01*
X112238095Y-66395238D01*
X111857142Y-66680952D02*
X112000000Y-66490476D01*
X112142857Y-66680952D01*
X112761904Y-66252380D02*
X112761904Y-66490476D01*
X112523809Y-66395238D02*
X112761904Y-66490476D01*
X113000000Y-66395238D01*
X112619047Y-66680952D02*
X112761904Y-66490476D01*
X112904761Y-66680952D01*
X198666666Y-137252380D02*
X198333333Y-136776190D01*
X198095238Y-137252380D02*
X198095238Y-136252380D01*
X198476190Y-136252380D01*
X198571428Y-136300000D01*
X198619047Y-136347619D01*
X198666666Y-136442857D01*
X198666666Y-136585714D01*
X198619047Y-136680952D01*
X198571428Y-136728571D01*
X198476190Y-136776190D01*
X198095238Y-136776190D01*
X199095238Y-136728571D02*
X199428571Y-136728571D01*
X199571428Y-137252380D02*
X199095238Y-137252380D01*
X199095238Y-136252380D01*
X199571428Y-136252380D01*
X200333333Y-136728571D02*
X200000000Y-136728571D01*
X200000000Y-137252380D02*
X200000000Y-136252380D01*
X200476190Y-136252380D01*
X201000000Y-136252380D02*
X201000000Y-136490476D01*
X200761904Y-136395238D02*
X201000000Y-136490476D01*
X201238095Y-136395238D01*
X200857142Y-136680952D02*
X201000000Y-136490476D01*
X201142857Y-136680952D01*
X201761904Y-136252380D02*
X201761904Y-136490476D01*
X201523809Y-136395238D02*
X201761904Y-136490476D01*
X202000000Y-136395238D01*
X201619047Y-136680952D02*
X201761904Y-136490476D01*
X201904761Y-136680952D01*
X109666666Y-137252380D02*
X109333333Y-136776190D01*
X109095238Y-137252380D02*
X109095238Y-136252380D01*
X109476190Y-136252380D01*
X109571428Y-136300000D01*
X109619047Y-136347619D01*
X109666666Y-136442857D01*
X109666666Y-136585714D01*
X109619047Y-136680952D01*
X109571428Y-136728571D01*
X109476190Y-136776190D01*
X109095238Y-136776190D01*
X110095238Y-136728571D02*
X110428571Y-136728571D01*
X110571428Y-137252380D02*
X110095238Y-137252380D01*
X110095238Y-136252380D01*
X110571428Y-136252380D01*
X111333333Y-136728571D02*
X111000000Y-136728571D01*
X111000000Y-137252380D02*
X111000000Y-136252380D01*
X111476190Y-136252380D01*
X112000000Y-136252380D02*
X112000000Y-136490476D01*
X111761904Y-136395238D02*
X112000000Y-136490476D01*
X112238095Y-136395238D01*
X111857142Y-136680952D02*
X112000000Y-136490476D01*
X112142857Y-136680952D01*
X112761904Y-136252380D02*
X112761904Y-136490476D01*
X112523809Y-136395238D02*
X112761904Y-136490476D01*
X113000000Y-136395238D01*
X112619047Y-136680952D02*
X112761904Y-136490476D01*
X112904761Y-136680952D01*
%TO.C,C1*%
X169931142Y-80887866D02*
X169978761Y-80935485D01*
X170026380Y-81078342D01*
X170026380Y-81173580D01*
X169978761Y-81316438D01*
X169883523Y-81411676D01*
X169788285Y-81459295D01*
X169597809Y-81506914D01*
X169454952Y-81506914D01*
X169264476Y-81459295D01*
X169169238Y-81411676D01*
X169074000Y-81316438D01*
X169026380Y-81173580D01*
X169026380Y-81078342D01*
X169074000Y-80935485D01*
X169121619Y-80887866D01*
X170026380Y-79935485D02*
X170026380Y-80506914D01*
X170026380Y-80221200D02*
X169026380Y-80221200D01*
X169169238Y-80316438D01*
X169264476Y-80411676D01*
X169312095Y-80506914D01*
%TO.C,C2*%
X126370142Y-80557666D02*
X126417761Y-80605285D01*
X126465380Y-80748142D01*
X126465380Y-80843380D01*
X126417761Y-80986238D01*
X126322523Y-81081476D01*
X126227285Y-81129095D01*
X126036809Y-81176714D01*
X125893952Y-81176714D01*
X125703476Y-81129095D01*
X125608238Y-81081476D01*
X125513000Y-80986238D01*
X125465380Y-80843380D01*
X125465380Y-80748142D01*
X125513000Y-80605285D01*
X125560619Y-80557666D01*
X125560619Y-80176714D02*
X125513000Y-80129095D01*
X125465380Y-80033857D01*
X125465380Y-79795761D01*
X125513000Y-79700523D01*
X125560619Y-79652904D01*
X125655857Y-79605285D01*
X125751095Y-79605285D01*
X125893952Y-79652904D01*
X126465380Y-80224333D01*
X126465380Y-79605285D01*
%TO.C,C3*%
X177297142Y-107329266D02*
X177344761Y-107376885D01*
X177392380Y-107519742D01*
X177392380Y-107614980D01*
X177344761Y-107757838D01*
X177249523Y-107853076D01*
X177154285Y-107900695D01*
X176963809Y-107948314D01*
X176820952Y-107948314D01*
X176630476Y-107900695D01*
X176535238Y-107853076D01*
X176440000Y-107757838D01*
X176392380Y-107614980D01*
X176392380Y-107519742D01*
X176440000Y-107376885D01*
X176487619Y-107329266D01*
X176392380Y-106995933D02*
X176392380Y-106376885D01*
X176773333Y-106710219D01*
X176773333Y-106567361D01*
X176820952Y-106472123D01*
X176868571Y-106424504D01*
X176963809Y-106376885D01*
X177201904Y-106376885D01*
X177297142Y-106424504D01*
X177344761Y-106472123D01*
X177392380Y-106567361D01*
X177392380Y-106853076D01*
X177344761Y-106948314D01*
X177297142Y-106995933D01*
%TO.C,C4*%
X128230333Y-99261142D02*
X128182714Y-99308761D01*
X128039857Y-99356380D01*
X127944619Y-99356380D01*
X127801761Y-99308761D01*
X127706523Y-99213523D01*
X127658904Y-99118285D01*
X127611285Y-98927809D01*
X127611285Y-98784952D01*
X127658904Y-98594476D01*
X127706523Y-98499238D01*
X127801761Y-98404000D01*
X127944619Y-98356380D01*
X128039857Y-98356380D01*
X128182714Y-98404000D01*
X128230333Y-98451619D01*
X129087476Y-98689714D02*
X129087476Y-99356380D01*
X128849380Y-98308761D02*
X128611285Y-99023047D01*
X129230333Y-99023047D01*
%TO.C,D1*%
X195807104Y-102661980D02*
X195807104Y-101661980D01*
X196045200Y-101661980D01*
X196188057Y-101709600D01*
X196283295Y-101804838D01*
X196330914Y-101900076D01*
X196378533Y-102090552D01*
X196378533Y-102233409D01*
X196330914Y-102423885D01*
X196283295Y-102519123D01*
X196188057Y-102614361D01*
X196045200Y-102661980D01*
X195807104Y-102661980D01*
X197330914Y-102661980D02*
X196759485Y-102661980D01*
X197045200Y-102661980D02*
X197045200Y-101661980D01*
X196949961Y-101804838D01*
X196854723Y-101900076D01*
X196759485Y-101947695D01*
%TO.C,J1*%
X167052666Y-82738980D02*
X167052666Y-83453266D01*
X167005047Y-83596123D01*
X166909809Y-83691361D01*
X166766952Y-83738980D01*
X166671714Y-83738980D01*
X168052666Y-83738980D02*
X167481238Y-83738980D01*
X167766952Y-83738980D02*
X167766952Y-82738980D01*
X167671714Y-82881838D01*
X167576476Y-82977076D01*
X167481238Y-83024695D01*
%TO.C,J2*%
X166798666Y-93660980D02*
X166798666Y-94375266D01*
X166751047Y-94518123D01*
X166655809Y-94613361D01*
X166512952Y-94660980D01*
X166417714Y-94660980D01*
X167227238Y-93756219D02*
X167274857Y-93708600D01*
X167370095Y-93660980D01*
X167608190Y-93660980D01*
X167703428Y-93708600D01*
X167751047Y-93756219D01*
X167798666Y-93851457D01*
X167798666Y-93946695D01*
X167751047Y-94089552D01*
X167179619Y-94660980D01*
X167798666Y-94660980D01*
%TO.C,J3*%
X166798666Y-104582980D02*
X166798666Y-105297266D01*
X166751047Y-105440123D01*
X166655809Y-105535361D01*
X166512952Y-105582980D01*
X166417714Y-105582980D01*
X167179619Y-104582980D02*
X167798666Y-104582980D01*
X167465333Y-104963933D01*
X167608190Y-104963933D01*
X167703428Y-105011552D01*
X167751047Y-105059171D01*
X167798666Y-105154409D01*
X167798666Y-105392504D01*
X167751047Y-105487742D01*
X167703428Y-105535361D01*
X167608190Y-105582980D01*
X167322476Y-105582980D01*
X167227238Y-105535361D01*
X167179619Y-105487742D01*
%TO.C,J4*%
X174545666Y-109408980D02*
X174545666Y-110123266D01*
X174498047Y-110266123D01*
X174402809Y-110361361D01*
X174259952Y-110408980D01*
X174164714Y-110408980D01*
X175450428Y-109742314D02*
X175450428Y-110408980D01*
X175212333Y-109361361D02*
X174974238Y-110075647D01*
X175593285Y-110075647D01*
%TO.C,J5*%
X122348666Y-82510380D02*
X122348666Y-83224666D01*
X122301047Y-83367523D01*
X122205809Y-83462761D01*
X122062952Y-83510380D01*
X121967714Y-83510380D01*
X123301047Y-82510380D02*
X122824857Y-82510380D01*
X122777238Y-82986571D01*
X122824857Y-82938952D01*
X122920095Y-82891333D01*
X123158190Y-82891333D01*
X123253428Y-82938952D01*
X123301047Y-82986571D01*
X123348666Y-83081809D01*
X123348666Y-83319904D01*
X123301047Y-83415142D01*
X123253428Y-83462761D01*
X123158190Y-83510380D01*
X122920095Y-83510380D01*
X122824857Y-83462761D01*
X122777238Y-83415142D01*
%TO.C,J6*%
X122094666Y-104100380D02*
X122094666Y-104814666D01*
X122047047Y-104957523D01*
X121951809Y-105052761D01*
X121808952Y-105100380D01*
X121713714Y-105100380D01*
X122999428Y-104100380D02*
X122808952Y-104100380D01*
X122713714Y-104148000D01*
X122666095Y-104195619D01*
X122570857Y-104338476D01*
X122523238Y-104528952D01*
X122523238Y-104909904D01*
X122570857Y-105005142D01*
X122618476Y-105052761D01*
X122713714Y-105100380D01*
X122904190Y-105100380D01*
X122999428Y-105052761D01*
X123047047Y-105005142D01*
X123094666Y-104909904D01*
X123094666Y-104671809D01*
X123047047Y-104576571D01*
X122999428Y-104528952D01*
X122904190Y-104481333D01*
X122713714Y-104481333D01*
X122618476Y-104528952D01*
X122570857Y-104576571D01*
X122523238Y-104671809D01*
%TO.C,J7*%
X122094666Y-93559380D02*
X122094666Y-94273666D01*
X122047047Y-94416523D01*
X121951809Y-94511761D01*
X121808952Y-94559380D01*
X121713714Y-94559380D01*
X122475619Y-93559380D02*
X123142285Y-93559380D01*
X122713714Y-94559380D01*
%TO.C,J8*%
X142033666Y-110069380D02*
X142033666Y-110783666D01*
X141986047Y-110926523D01*
X141890809Y-111021761D01*
X141747952Y-111069380D01*
X141652714Y-111069380D01*
X142652714Y-110497952D02*
X142557476Y-110450333D01*
X142509857Y-110402714D01*
X142462238Y-110307476D01*
X142462238Y-110259857D01*
X142509857Y-110164619D01*
X142557476Y-110117000D01*
X142652714Y-110069380D01*
X142843190Y-110069380D01*
X142938428Y-110117000D01*
X142986047Y-110164619D01*
X143033666Y-110259857D01*
X143033666Y-110307476D01*
X142986047Y-110402714D01*
X142938428Y-110450333D01*
X142843190Y-110497952D01*
X142652714Y-110497952D01*
X142557476Y-110545571D01*
X142509857Y-110593190D01*
X142462238Y-110688428D01*
X142462238Y-110878904D01*
X142509857Y-110974142D01*
X142557476Y-111021761D01*
X142652714Y-111069380D01*
X142843190Y-111069380D01*
X142938428Y-111021761D01*
X142986047Y-110974142D01*
X143033666Y-110878904D01*
X143033666Y-110688428D01*
X142986047Y-110593190D01*
X142938428Y-110545571D01*
X142843190Y-110497952D01*
%TO.C,J9*%
X129968666Y-110069380D02*
X129968666Y-110783666D01*
X129921047Y-110926523D01*
X129825809Y-111021761D01*
X129682952Y-111069380D01*
X129587714Y-111069380D01*
X130492476Y-111069380D02*
X130682952Y-111069380D01*
X130778190Y-111021761D01*
X130825809Y-110974142D01*
X130921047Y-110831285D01*
X130968666Y-110640809D01*
X130968666Y-110259857D01*
X130921047Y-110164619D01*
X130873428Y-110117000D01*
X130778190Y-110069380D01*
X130587714Y-110069380D01*
X130492476Y-110117000D01*
X130444857Y-110164619D01*
X130397238Y-110259857D01*
X130397238Y-110497952D01*
X130444857Y-110593190D01*
X130492476Y-110640809D01*
X130587714Y-110688428D01*
X130778190Y-110688428D01*
X130873428Y-110640809D01*
X130921047Y-110593190D01*
X130968666Y-110497952D01*
%TO.C,J10*%
D13*
X150114523Y-84179095D02*
X151021666Y-84179095D01*
X151203095Y-84239571D01*
X151324047Y-84360523D01*
X151384523Y-84541952D01*
X151384523Y-84662904D01*
X151384523Y-82909095D02*
X151384523Y-83634809D01*
X151384523Y-83271952D02*
X150114523Y-83271952D01*
X150295952Y-83392904D01*
X150416904Y-83513857D01*
X150477380Y-83634809D01*
X150114523Y-82122904D02*
X150114523Y-82001952D01*
X150175000Y-81881000D01*
X150235476Y-81820523D01*
X150356428Y-81760047D01*
X150598333Y-81699571D01*
X150900714Y-81699571D01*
X151142619Y-81760047D01*
X151263571Y-81820523D01*
X151324047Y-81881000D01*
X151384523Y-82001952D01*
X151384523Y-82122904D01*
X151324047Y-82243857D01*
X151263571Y-82304333D01*
X151142619Y-82364809D01*
X150900714Y-82425285D01*
X150598333Y-82425285D01*
X150356428Y-82364809D01*
X150235476Y-82304333D01*
X150175000Y-82243857D01*
X150114523Y-82122904D01*
%TO.C,J11*%
X170246523Y-97471895D02*
X171153666Y-97471895D01*
X171335095Y-97532371D01*
X171456047Y-97653323D01*
X171516523Y-97834752D01*
X171516523Y-97955704D01*
X171516523Y-96201895D02*
X171516523Y-96927609D01*
X171516523Y-96564752D02*
X170246523Y-96564752D01*
X170427952Y-96685704D01*
X170548904Y-96806657D01*
X170609380Y-96927609D01*
X171516523Y-94992371D02*
X171516523Y-95718085D01*
X171516523Y-95355228D02*
X170246523Y-95355228D01*
X170427952Y-95476180D01*
X170548904Y-95597133D01*
X170609380Y-95718085D01*
%TO.C,J12*%
D16*
X146891476Y-98488380D02*
X146891476Y-99202666D01*
X146843857Y-99345523D01*
X146748619Y-99440761D01*
X146605761Y-99488380D01*
X146510523Y-99488380D01*
X147891476Y-99488380D02*
X147320047Y-99488380D01*
X147605761Y-99488380D02*
X147605761Y-98488380D01*
X147510523Y-98631238D01*
X147415285Y-98726476D01*
X147320047Y-98774095D01*
X148272428Y-98583619D02*
X148320047Y-98536000D01*
X148415285Y-98488380D01*
X148653380Y-98488380D01*
X148748619Y-98536000D01*
X148796238Y-98583619D01*
X148843857Y-98678857D01*
X148843857Y-98774095D01*
X148796238Y-98916952D01*
X148224809Y-99488380D01*
X148843857Y-99488380D01*
%TO.C,J13*%
X189055476Y-111924980D02*
X189055476Y-112639266D01*
X189007857Y-112782123D01*
X188912619Y-112877361D01*
X188769761Y-112924980D01*
X188674523Y-112924980D01*
X190055476Y-112924980D02*
X189484047Y-112924980D01*
X189769761Y-112924980D02*
X189769761Y-111924980D01*
X189674523Y-112067838D01*
X189579285Y-112163076D01*
X189484047Y-112210695D01*
X190388809Y-111924980D02*
X191007857Y-111924980D01*
X190674523Y-112305933D01*
X190817380Y-112305933D01*
X190912619Y-112353552D01*
X190960238Y-112401171D01*
X191007857Y-112496409D01*
X191007857Y-112734504D01*
X190960238Y-112829742D01*
X190912619Y-112877361D01*
X190817380Y-112924980D01*
X190531666Y-112924980D01*
X190436428Y-112877361D01*
X190388809Y-112829742D01*
%TO.C,L1*%
X190723780Y-85917066D02*
X190723780Y-86393257D01*
X189723780Y-86393257D01*
X190723780Y-85059923D02*
X190723780Y-85631352D01*
X190723780Y-85345638D02*
X189723780Y-85345638D01*
X189866638Y-85440876D01*
X189961876Y-85536114D01*
X190009495Y-85631352D01*
%TO.C,R1*%
X123769380Y-87161666D02*
X123293190Y-87495000D01*
X123769380Y-87733095D02*
X122769380Y-87733095D01*
X122769380Y-87352142D01*
X122817000Y-87256904D01*
X122864619Y-87209285D01*
X122959857Y-87161666D01*
X123102714Y-87161666D01*
X123197952Y-87209285D01*
X123245571Y-87256904D01*
X123293190Y-87352142D01*
X123293190Y-87733095D01*
X123769380Y-86209285D02*
X123769380Y-86780714D01*
X123769380Y-86495000D02*
X122769380Y-86495000D01*
X122912238Y-86590238D01*
X123007476Y-86685476D01*
X123055095Y-86780714D01*
%TO.C,R2*%
X126436380Y-85891666D02*
X125960190Y-86225000D01*
X126436380Y-86463095D02*
X125436380Y-86463095D01*
X125436380Y-86082142D01*
X125484000Y-85986904D01*
X125531619Y-85939285D01*
X125626857Y-85891666D01*
X125769714Y-85891666D01*
X125864952Y-85939285D01*
X125912571Y-85986904D01*
X125960190Y-86082142D01*
X125960190Y-86463095D01*
X125531619Y-85510714D02*
X125484000Y-85463095D01*
X125436380Y-85367857D01*
X125436380Y-85129761D01*
X125484000Y-85034523D01*
X125531619Y-84986904D01*
X125626857Y-84939285D01*
X125722095Y-84939285D01*
X125864952Y-84986904D01*
X126436380Y-85558333D01*
X126436380Y-84939285D01*
%TO.C,R3*%
X196378533Y-100629980D02*
X196045200Y-100153790D01*
X195807104Y-100629980D02*
X195807104Y-99629980D01*
X196188057Y-99629980D01*
X196283295Y-99677600D01*
X196330914Y-99725219D01*
X196378533Y-99820457D01*
X196378533Y-99963314D01*
X196330914Y-100058552D01*
X196283295Y-100106171D01*
X196188057Y-100153790D01*
X195807104Y-100153790D01*
X196711866Y-99629980D02*
X197330914Y-99629980D01*
X196997580Y-100010933D01*
X197140438Y-100010933D01*
X197235676Y-100058552D01*
X197283295Y-100106171D01*
X197330914Y-100201409D01*
X197330914Y-100439504D01*
X197283295Y-100534742D01*
X197235676Y-100582361D01*
X197140438Y-100629980D01*
X196854723Y-100629980D01*
X196759485Y-100582361D01*
X196711866Y-100534742D01*
%TO.C,R4*%
X171165780Y-88228466D02*
X170689590Y-88561800D01*
X171165780Y-88799895D02*
X170165780Y-88799895D01*
X170165780Y-88418942D01*
X170213400Y-88323704D01*
X170261019Y-88276085D01*
X170356257Y-88228466D01*
X170499114Y-88228466D01*
X170594352Y-88276085D01*
X170641971Y-88323704D01*
X170689590Y-88418942D01*
X170689590Y-88799895D01*
X170499114Y-87371323D02*
X171165780Y-87371323D01*
X170118161Y-87609419D02*
X170832447Y-87847514D01*
X170832447Y-87228466D01*
%TO.C,U1*%
D13*
X129776340Y-78440763D02*
X129776340Y-79468859D01*
X129836817Y-79589811D01*
X129897293Y-79650287D01*
X130018245Y-79710763D01*
X130260150Y-79710763D01*
X130381102Y-79650287D01*
X130441579Y-79589811D01*
X130502055Y-79468859D01*
X130502055Y-78440763D01*
X131772055Y-79710763D02*
X131046340Y-79710763D01*
X131409198Y-79710763D02*
X131409198Y-78440763D01*
X131288245Y-78622192D01*
X131167293Y-78743144D01*
X131046340Y-78803620D01*
%TO.C,U2*%
X175928140Y-83515683D02*
X175928140Y-84543779D01*
X175988617Y-84664731D01*
X176049093Y-84725207D01*
X176170045Y-84785683D01*
X176411950Y-84785683D01*
X176532902Y-84725207D01*
X176593379Y-84664731D01*
X176653855Y-84543779D01*
X176653855Y-83515683D01*
X177198140Y-83636636D02*
X177258617Y-83576160D01*
X177379569Y-83515683D01*
X177681950Y-83515683D01*
X177802902Y-83576160D01*
X177863379Y-83636636D01*
X177923855Y-83757588D01*
X177923855Y-83878540D01*
X177863379Y-84059969D01*
X177137664Y-84785683D01*
X177923855Y-84785683D01*
%TO.C,J14*%
D16*
X164595276Y-133159380D02*
X164595276Y-133873666D01*
X164547657Y-134016523D01*
X164452419Y-134111761D01*
X164309561Y-134159380D01*
X164214323Y-134159380D01*
X165595276Y-134159380D02*
X165023847Y-134159380D01*
X165309561Y-134159380D02*
X165309561Y-133159380D01*
X165214323Y-133302238D01*
X165119085Y-133397476D01*
X165023847Y-133445095D01*
X166452419Y-133492714D02*
X166452419Y-134159380D01*
X166214323Y-133111761D02*
X165976228Y-133826047D01*
X166595276Y-133826047D01*
%TO.C,J15*%
X151590476Y-131914780D02*
X151590476Y-132629066D01*
X151542857Y-132771923D01*
X151447619Y-132867161D01*
X151304761Y-132914780D01*
X151209523Y-132914780D01*
X152590476Y-132914780D02*
X152019047Y-132914780D01*
X152304761Y-132914780D02*
X152304761Y-131914780D01*
X152209523Y-132057638D01*
X152114285Y-132152876D01*
X152019047Y-132200495D01*
X153495238Y-131914780D02*
X153019047Y-131914780D01*
X152971428Y-132390971D01*
X153019047Y-132343352D01*
X153114285Y-132295733D01*
X153352380Y-132295733D01*
X153447619Y-132343352D01*
X153495238Y-132390971D01*
X153542857Y-132486209D01*
X153542857Y-132724304D01*
X153495238Y-132819542D01*
X153447619Y-132867161D01*
X153352380Y-132914780D01*
X153114285Y-132914780D01*
X153019047Y-132867161D01*
X152971428Y-132819542D01*
%TO.C,J16*%
D13*
X193942304Y-123180323D02*
X193942304Y-124087466D01*
X193881828Y-124268895D01*
X193760876Y-124389847D01*
X193579447Y-124450323D01*
X193458495Y-124450323D01*
X195212304Y-124450323D02*
X194486590Y-124450323D01*
X194849447Y-124450323D02*
X194849447Y-123180323D01*
X194728495Y-123361752D01*
X194607542Y-123482704D01*
X194486590Y-123543180D01*
X196300876Y-123180323D02*
X196058971Y-123180323D01*
X195938019Y-123240800D01*
X195877542Y-123301276D01*
X195756590Y-123482704D01*
X195696114Y-123724609D01*
X195696114Y-124208419D01*
X195756590Y-124329371D01*
X195817066Y-124389847D01*
X195938019Y-124450323D01*
X196179923Y-124450323D01*
X196300876Y-124389847D01*
X196361352Y-124329371D01*
X196421828Y-124208419D01*
X196421828Y-123906038D01*
X196361352Y-123785085D01*
X196300876Y-123724609D01*
X196179923Y-123664133D01*
X195938019Y-123664133D01*
X195817066Y-123724609D01*
X195756590Y-123785085D01*
X195696114Y-123906038D01*
%TO.C,J17*%
X142024704Y-117058923D02*
X142024704Y-117966066D01*
X141964228Y-118147495D01*
X141843276Y-118268447D01*
X141661847Y-118328923D01*
X141540895Y-118328923D01*
X143294704Y-118328923D02*
X142568990Y-118328923D01*
X142931847Y-118328923D02*
X142931847Y-117058923D01*
X142810895Y-117240352D01*
X142689942Y-117361304D01*
X142568990Y-117421780D01*
X143718038Y-117058923D02*
X144564704Y-117058923D01*
X144020419Y-118328923D01*
%TD*%
M02*
